<?xml version="1.0" encoding="utf-8"?>
<!-- Generator: Adobe Illustrator 23.0.3, SVG Export Plug-In . SVG Version: 6.00 Build 0)  -->
<svg version="1.1" id="logosvg.com" xmlns:svg="http://www.w3.org/2000/svg"
	 xmlns="http://www.w3.org/2000/svg" xmlns:xlink="http://www.w3.org/1999/xlink" x="0px" y="0px" viewBox="0 0 400 300"
	 style="enable-background:new 0 0 400 300;" xml:space="preserve">
<style type="text/css">
	.st0{fill:#0C4DA2;}
	.st1{fill:#FFCB08;}
</style>
<path id="blue" class="st0" d="M268.4,114.8c-11.6,0-21.9,5-28.6,12.8c-2-2.5-4.4-5.2-7-7.1c-5.5-4.1-12.7-5.4-20.4-5.6
	c-13-0.4-23.4,6.7-28.2,14.6c-4-8.1-7.7-12.3-21.8-13h-34.1v14.2c0,0,1.6,0.5,2.2,1.1c0.5,0.5,0.8,1.9,0.8,1.9l-0.1,31.6
	c0,0-0.9-0.6-1.2-1.1c-0.7-0.8-1.6-2.6-1.6-2.6l-17.5-45.2H88.7l-19.3,50.3v-10.8H55.5c-1.1,3-4.2,5-7.9,5c-1.9,0-4-0.5-5.7-1.5
	c-2.2-1.3-3.8-2.9-5.2-5.7c-1.1-2.6-1.9-5.7-2-8.5c0.3-5.5,2-7.5,5.1-9.8c0.7-0.5,2.6-0.9,3.1-0.9c1.2,0,2.2,0.7,2.8,1.8
	c0.8,1.6-0.4,3.5-1.5,4.8l11.2,7.7l17.3-18.1c-6-9.6-17.1-16.1-29.7-16.1c-19.1,0-34.6,14.8-34.6,33s15,32,34.6,33.5l2.5,0.1h26.3
	l0,0h61.3l0,0h23.1l0,0h3.6v-13.5c0,0-1.9-0.4-2.7-0.9c-0.8-0.6-0.9-1.5-0.9-1.5c0-0.3,0.1-0.6,0.2-0.8c0.2-0.2,0.6-0.4,0.8-0.4
	c2.4-0.5,4.8-1.2,7.2-2.1c6.5-2.3,11.9-5.7,15.8-9.3c2.6,15.3,16.1,26.5,32.3,28.4c1.1,0.1,2,0.2,3,0.2c0.3,0,0.8,0,0.8,0h23
	l-0.1-11.3c6,6.6,17.6,13,29.4,13c9.6,0,18.2-4.2,24.3-9.4v7.8H322l0.1-12l7.6,0.1v-0.1l10.2,0.1v11.9h31v-15.7c0,0-1.3-0.1-1.8-0.4
	c-0.7-0.5-1.4-2.1-1.4-2.1l-4.4-28.9c0,0,0.1-1.9,0.7-2.7c0.5-0.6,2-1.1,2-1.1v-14h-2.8h-4.5H335v0.4l-2.2,7.3l-3.1-7.4v-0.3h-0.1
	l-0.1-0.2v0.2h-29.8v14.7l-2-2.8c-5.6-8.2-15.4-13.6-26.6-13.6c-0.5,0-0.9,0-1.4,0C269.4,114.8,268.9,114.8,268.4,114.8z
	 M69.1,169.7v0.1H69C69,169.8,69,169.7,69.1,169.7L69.1,169.7L69.1,169.7z M384,114.6c-5.3,0-9.7,4.3-9.7,9.7c0,5.3,4.3,9.7,9.7,9.7
	c5.3,0,9.7-4.3,9.7-9.7S389.3,114.6,384,114.6z M384,115.9c4.6,0,8.4,3.7,8.4,8.4c0,4.6-3.7,8.4-8.4,8.4c-4.6,0-8.4-3.7-8.4-8.4
	S379.4,115.9,384,115.9z M379,118.4v11.5h2.4v-4h3.2l2.7,4h2.7l-3.2-4.3c1.3-0.5,2.3-1.9,2.3-3.5c0-2-1.6-3.7-3.5-3.7l0,0h-4.1l0,0
	H379z M381.4,120.7h4c0.8,0.1,1.4,0.2,1.3,1.4c0,1.3-1,1.5-1.3,1.5h-4V120.7z"/>
<path id="yellow" class="st1" d="M43.1,121.1c-15.7,0.1-28.6,11.6-28.6,26.6s14.2,27.9,31.4,27.5h16.7v-13.1h-3.2
	c-1,2.5-5.6,4.9-9,4.9c-1.8,0-6.2-0.2-7.9-0.8c-2.9-1-7.1-2.5-10.7-8.5c-1-2.1-3.7-7.3-3.1-14.9c0.3-4.6,3.2-10.2,8.4-12.8
	c2.3-1.1,4.5-1.3,8.5-0.9c2.9,0.3,5.7,2.3,6.7,4.7c0.8,1.9,0.5,4.2-0.4,5.5c-0.1,0.1-0.1,0.2-0.1,0.3s0.1,0.2,0.1,0.2l1.6,1.2
	c0,0,0.4,0.3,1,0.3c0.3,0,0.9-0.3,0.9-0.3l9-9.5C59,123.8,49.1,121.1,43.1,121.1L43.1,121.1z M268.6,120.9
	c-16.7,0-30.2,12.5-30.2,28s13.5,28,30.2,28s30.2-12.5,30.2-28S285.2,120.9,268.6,120.9z M268.8,129.6c8.6,0,13.2,6.1,15.1,13.5
	c0.5,2.1,0.3,9.1,0,11.4c-1,7.1-6.8,14-15.2,13.8c-8.2-0.2-13.7-4-15.4-14.3c-0.5-3-0.5-6.6-0.1-9.6
	C254.4,135.6,260.2,129.6,268.8,129.6L268.8,129.6L268.8,129.6z M92.9,122.6c0,0-13.3,35.9-15.6,42.4c-2.4,6.5-5.1,6.3-5.1,6.3
	l0.2,4h16v-3.8c0,0-1-0.1-1.8-0.7c-1.5-1.3-0.5-4-0.5-4l3.7-9.5h16.5c0,0,3.2,8,4,10.7c1,3.5-2.2,3.5-2.2,3.5v3.9h20.3v-3.8
	c0,0-1.2-0.2-2.5-1.3c-1.5-1.3-2.4-3.9-2.4-3.9l-16.6-43.7L92.9,122.6z M97.6,133.7l5.5,15.3H92.5L97.6,133.7z M134.8,122.6
	l-0.1,4.4c0,0,1.3,0.4,2.5,1.7c0.7,0.7,0.2,9.9,0.2,9.9v29.5c0,0,0.4,1.2-1,2.3c-0.5,0.4-1,0.9-1.8,1l-0.1,3.9h18.8v-4
	c0,0-0.7-0.3-1.7-1.2c-0.6-0.5-1-1.3-0.9-2.1c0-2.7,0.1-5.2,0.1-7.8c6.6-1.6,12.3-4.3,14.5-5.1c8.3-3.3,14.8-8.6,14.4-18
	c-0.1-6.7-3.5-12.1-10.7-13.4c-3.3-1-4.8-1.1-6.1-1.2L134.8,122.6z M156.3,130c2,0,4.4,0.4,6.3,1.4c2.3,1.5,3.7,3.1,3.7,6.4
	c0.1,1.6-0.4,2.9-1.1,4.3c-0.8,1.3-3.2,3.8-4.7,5.3c-4.4,3.1-5.9,4.1-9.4,5.7l-0.1-22.3C152.9,130.3,154.5,130.1,156.3,130z
	 M214.3,121.2c-15.7,0.1-28.6,11.6-28.6,26.6s14.2,27.9,31.4,27.5h16.7v-13.1h-3.2c-1,2.5-5.6,4.9-9,4.9c-1.8,0-6.2-0.2-7.9-0.8
	c-2.9-1-7.1-2.5-10.7-8.5c-1-2.1-3.7-7.3-3.1-14.9c0.3-4.6,3.2-10.2,8.4-12.8c2.3-1.1,4.5-1.3,8.5-0.9c2.9,0.3,5.7,2.3,6.7,4.7
	c0.8,1.9,0.5,4.2-0.4,5.5c-0.1,0.1-0.1,0.2-0.1,0.3s0.1,0.2,0.1,0.2l1.6,1.2c0,0,0.4,0.3,1,0.3c0.3,0,0.9-0.3,0.9-0.3l9-9.5
	C230.2,123.9,220.3,121.2,214.3,121.2z M306.3,122.7v3.8c0,0,1.7,0.4,2.3,1c0.8,0.6,0.6,1.6,0.6,1.6s-6,37.3-6.1,38
	s-0.3,2.5-1.4,3.4c-1,1-2.2,1.2-2.2,1.2v3.7h16.8v-3.5c0,0-1.4-0.1-2.3-1s-0.6-3.4-0.6-3.4l4.1-28.2l8.4,24.2l10.2,0.1l8.3-26.1
	l4.6,30c0,0,0.6,2.3-0.6,3.4c-0.9,0.9-2.3,1-2.3,1v3.5h19.5v-3.7c0,0-0.4,0.1-1.5-0.7c-0.6-0.5-1-2.8-1.1-3.6
	c-0.1-0.7-5.4-38.2-5.4-38.2s-0.1-1.5,0.8-2.3c0.6-0.6,1.9-1.1,1.9-1.1v-3.1h-20.2l-7.4,21.3l-7-21.3H306.3z"/>
</svg>
