<?xml version="1.0" encoding="utf-8"?>
<!-- Generator: Adobe Illustrator 23.0.3, SVG Export Plug-In . SVG Version: 6.00 Build 0)  -->
<svg version="1.1" id="logosvg.com" xmlns="http://www.w3.org/2000/svg" xmlns:xlink="http://www.w3.org/1999/xlink" x="0px"
	 y="0px" viewBox="0 0 400 300" style="enable-background:new 0 0 400 300;" xml:space="preserve">
<style type="text/css">
	.st0{fill:#1287C0;}
	.st1{fill:#FFFFFF;}
</style>
<path id="blue" class="st0" d="M389.4,143.5c-2.6-13.6-15.7-20.1-21.5-21.6c-6.5-1.7-13.6-1.2-19.8,1.5c-3,1.3-7,3.6-9.5,5.8
	c-2.6-2.5-8.4-5.9-15-5.9c-5.8,0.3-29.3,3-35.4,6.2c-3.3-5.9-8.5-12.4-14.8-12.9c-3-0.2-5.8,1-7.6,3.4c-2.5,3.4-2.3,7.9-1.5,12.9
	c-9-9-29.2-9.6-42.1-9.7c-12.2-0.1-28.2,3.1-32.7,5.5c2.3-1.4,11.1-6.5,16.6-14c5.5,0.9,11.9-2.1,15.1-6.7c3.5-5,3.6-11.7,0.9-17.1
	c-2.3-4.4-6.5-7.8-11.2-9.1c-5.1-1.4-10.8-0.4-15,3c-0.6-5.7-4.7-10.5-9.9-12.6c-5.6-2.3-12.3-1.4-17.1,2.3c-2.6,2-4.6,4.8-5.5,8
	c-1,3.7-0.5,7.7,1.4,11.1c0,0,0,0,0,0.1c-4.8,4.3-9.1,10.6-8.6,17.3c-11.4-11.3-24.8-20.3-37.2-26.7C106.1,77.8,82,67.7,57.1,67.2
	C49.7,67,33.4,67.7,26,69.9C10.2,74.7,8.7,86.2,10.3,91.2c1.9,5.6,8.5,7.8,16.8,6.3c3.1-0.5,6.3-3.1,7.1-7.2
	c12.2-0.7,26.3,0.3,39.8,3.9c-3.1,8.3-5.1,19.2-6.2,31.5c-6.8,1.5-15,3.8-21.3,6.9c-5.6,2.8-11.8,6.7-14,12.9
	c-2.3,6.6,1.5,13.2,5.6,18.2c4.4,5.3,15,15.2,29.4,22.1c0.6,3.6,2.2,11,9.8,13.5c5.2,1.7,11.9,0.5,15.7-5c4.8,1.1,13.7,1.7,19.1,1.7
	l0,7.5c0,9.3,7.6,17,16.9,17h190.7c2.4,5,7.3,10.9,12.8,12c10,2,11.2-7.3,11.8-10.3c0.6-3.1,1-6.2,2-9.1l7.3-24.6
	c6.4-1,13.7-4,18.9-7.8c5.1-3.7,9.5-8.4,12.7-13.8C389.5,159.9,391.4,151.6,389.4,143.5"/>
<path id="white" class="st1" d="M253.7,134.5c6.3,0.5,21.5,28.2,23.3,27.7c1.1-0.3,1.2-2.9,1.2-4.4c0-7-7.3-25.3-7.3-30.6
	c0-1.7,0.3-3.4,1.9-3.4c6.2,0,16.9,19.7,17,35.8c0,7-4.3,17.8-11.7,17.8c-6.8,0-19.1-25.2-21.3-25.2c-3,0,0.9,27.7-6.7,27.7
	c-5.1,0-6.2-4.6-6.3-11.4C243.7,161.7,247.2,134,253.7,134.5 M221.8,130.5c7.2,0,20.1-0.1,20.1,4.9c0,8.4-41.2,3.8-41.3,10
	c0,1.8,8.9,2.3,17.3,3c11.1,0.9,23.8,2.5,23.9,15.9c0,5.5-4.7,16.3-23.6,16.3c-19.2,0.1-26-9.8-26-13.9c0-8.1,7.7-10.2,13-10.3
	c5.1,0,21.6,2,21.6,6c0,2.2-4.1,4.4-9.1,4.4c-5,0-12.2-4.4-15.7-4.4c-3.5,0-5.1,2.4-5.1,3.7c0,1.4,0.2,4.1,9.6,4.1
	c4.5,0,26.6-2.5,26.6-8.6c0-2.7-10.1-5.4-18.5-6.3c-10.2-1-25.6,1.5-25.6-8.9C188.9,131.2,216.4,130.5,221.8,130.5 M217.5,98.3
	c-0.2-2.5-1.1-5-2.9-6.7c-3.1-3.1-6.7-4.2-9.7-3.8c-3.1,0.4-5.8,2.1-7.4,4.8c-0.7,1.2-1,2.6-1.1,4c0,0-0.1,0-0.1,0
	c-2-1.9-4.8-4-9-4.2c1.6-1.7,2.5-4,2.4-6.3c-0.1-2.9-1.9-5.5-4.3-7.1c-4.5-2.9-11.2-2.1-14.6,2.2c-1.8,2.4-2.4,5.5-1.3,8.3
	c1,2.6,3.2,4.5,5.7,5.5c-7.7,3.7-12.3,10.6-12.2,15c0,4.4,3.3,12.1,16.6,12.3c7.8,0.1,19.4-7.5,22.8-15c1.1,0.6,2.3,1,3.6,1.1
	c3,0.5,6.1-0.2,8.4-2.2C216.6,104.2,217.7,101.3,217.5,98.3z M169.3,109.7c-1.2-3.7,3.8-8.4,11.9-9.8
	C176.8,102.5,172.3,106.1,169.3,109.7z M180.5,115.3c-2.1,0-3.9-0.3-5.4-0.7c4.1-4.6,13.8-13.2,18.6-13.2c3.1,0,3.7,2.5,3.7,3.4
	C197.5,110.5,185.6,115.3,180.5,115.3z M51.1,74.4C39.2,74.7,29.2,76,24.5,78c-4,1.8-7.7,6-7.7,9.5c-0.1,3.3,3.8,3.6,6.1,3.6
	c2.3,0,4.5-0.2,4.5-1.6c0-1.9-3.1-1.5-3.1-3.5c0-2.3,12.1-2.8,18.1-2.8c51.7-0.1,111.4,35.7,111.5,66.1c0.1,23.6-30.7,28.9-47.6,29
	c-6,0-11.9-0.6-17.4-1.7c-0.2-7.5-0.7-23.3-0.9-33.3c2,0,3.8,0,5.3,0c12.6,0,29,4.4,29.1,7.3c0,2.5-4.4,4.2-4.4,6.6
	c0,1.8,4.1,1.5,7.6,1.7c0.6,0.1,7.7-3.9,7.7-10.1c0-8.3-10.5-18-45.5-18c-0.3-9.3-1.7-24-7-23.9c-4.4,0-5.7,16.2-6,25.1
	c-18.9,2.8-35.7,10.5-35.7,18.1c0,6.2,13.5,21.8,35.4,31.3c0.4,7,1.7,11.8,7.9,11.8c4.5,0,6.1-3.3,6.5-6.8
	c7.1,1.8,14.8,2.8,22.9,2.8c31.7-0.1,57.2-17.1,57.1-40.3C168.7,117.7,105.8,72.9,51.1,74.4z M74.2,172.6
	C55.4,166,42.6,155.5,42.6,152c0-5.4,16.5-7.5,31.8-8.3C74.2,152.2,74.1,164.4,74.2,172.6z M130.8,214.5c-3.4,0-8.1-1.7-9.4-5.4
	c-1-3,0.5-6.2,4.4-9.5c8.8-7.4,14-8.7,17.5-8.9c4.3-0.3,6,2.4,6.3,3.9c0.3,1.4-0.6,2.7-2,3c-1.3,0.3-2.6-0.5-3-1.7
	c-0.1-0.1-0.4-0.2-1-0.1c-2.8,0.2-6.9,1.3-14.6,7.8c-2.5,2.1-2.9,3.5-2.8,3.9c0.3,0.9,2.3,1.8,4.1,1.9c3.7,0.2,18.3-0.6,21.3-1.6
	c1.3-0.5,2.8,0.2,3.2,1.6c0.5,1.3-0.3,2.8-1.6,3.2C149.5,213.8,135.8,214.5,130.8,214.5 M176.9,203l0.5,10.9c0.1,1.4-1,2.6-2.4,2.7
	c0,0-0.1,0-0.1,0c-1.4,0-2.5-1.1-2.5-2.4l-0.4-9.7c-2.2,0.6-4.8,1.4-7.4,2.2v6.3c0,1.4-1.1,2.5-2.5,2.5s-2.5-1.1-2.5-2.5v-4.7
	c-0.2,0.1-0.5,0.2-0.7,0.2c-0.2,0.1-0.5,0.1-0.7,0.1c-1.1,0-2.1-0.7-2.4-1.8c-0.4-1.4,0.3-2.8,1.7-3.2c0.5-0.1,1.2-0.4,2.2-0.7v-9.4
	c0-1.4,1.1-2.6,2.5-2.6c1.4,0,2.5,1.1,2.5,2.6v7.9c2.4-0.7,5-1.5,7.2-2.1l-0.4-8c-0.1-1.4,1-2.6,2.4-2.7c1.4,0,2.6,1,2.7,2.4
	l0.3,6.9c0.2,0,0.3-0.1,0.4-0.1c1.4-0.2,2.8,0.7,2.9,2.1C180.1,201.6,179.2,202.7,176.9,203 M173.5,159.8c0.2-7.9,0.3-29.5,5.7-29.5
	c4.2,0,6.1,5.5,6.8,34.1c0.4,15.1-1.1,15.6-5.4,15.6C175.8,180,173.2,177.8,173.5,159.8 M213.4,217.9c-1.4,0.1-2.5-0.6-2.8-1.7
	c-0.1-0.2-0.3-0.8-0.3-11.1c0-11.2,0.2-12,2-12.7c2-0.9,3.3,0.8,5.2,3.2c1.2,1.6,2.8,3.6,4.4,5.8c1.5,2,3.5,4.6,5,6.5
	c0.1-4.2,0.7-16.8,0.8-18c0.2-1.4,1.4-2.4,2.8-2.2c1.4,0.2,2.4,1.4,2.2,2.8c-0.1,0.9-0.7,10.9-0.8,15.2c0,4.4-0.1,8-2.1,9.2
	c-1,0.6-2.1,0.6-3.2,0.1c-1.2-0.6-2.7-2.4-8.8-10.6c-0.7-1-1.6-2.2-2.4-3.3c0,5.3,0.1,12.6,0.2,13.9
	C215.6,216.3,214.8,217.7,213.4,217.9 M258.1,214.8c-2.5,1.1-5-1.1-9.2-5.2l-0.4-0.4c-1.1-1.1-2.8-2.9-4.6-4.8
	c-0.7-0.7-1.4-1.5-2.2-2.3c0.2,3.3,0.4,7.6,0.7,11.6c0.1,1.4-0.9,2.6-2.4,2.7c-0.1,0-0.1,0-0.2,0c-1.3,0-2.4-1-2.5-2.3
	c0,0-0.3-4.4-0.6-8.8c-0.5-9.1-0.6-10.8,1.7-11.5c1.9-0.6,2.6,0.2,9.1,7.1c1.7,1.8,3.4,3.6,4.4,4.6l0.4,0.4c0.5,0.5,1.4,1.3,2.2,2
	c-0.4-4.5-1.1-11.6-1.6-15.8c-0.2-1.4,0.9-2.7,2.3-2.8c1.4-0.1,2.7,0.9,2.8,2.3c0.1,0.7,1.8,16.7,1.9,19.7
	C260,213.6,258.7,214.5,258.1,214.8 M284.7,212.9c-2.5,1.7-8.1,1.2-13.5,1.7c-2.6,0.2-4.6-0.2-5.5-1.2c-0.7-0.9-1.3-4.3-1.8-7.9
	c0-0.2-0.1-0.4-0.1-0.7c0,0,0-0.1,0-0.1c-0.5-4.6-0.8-9.3-0.8-9.4c0-1.2,0.5-2,1-2.4c1.3-1.2,3.1-1.3,6.1-1.2
	c3.1,0.1,10.4-0.4,11.3-0.5c1.2-0.2,2.4,0.5,2.8,1.7c0.5,1.3-0.2,2.8-1.6,3.2c-1,0.3-10.6,0.7-12.7,0.7c-0.4,0-1.1,0-1.8,0
	c0.1,1.3,0.2,1.9,0.4,4c4.2-0.2,9.4-0.5,11.7-0.9c1.1-0.2,2.4,0.9,2.5,2.3c0,1.1-0.7,2.2-2.1,2.5c-3.5,0.7-7.7,0.9-11.5,1
	c0.1,1,0.4,3.4,0.5,4c2.3,0.2,6.5-0.3,12.6-1.5c1.4-0.3,2.6-0.3,3.3,0.9C286.2,210.4,285.8,212.2,284.7,212.9 M292.2,189.9
	c1.4,0,2.5,1.1,2.6,2.5c0,0.7,0.3,15.9,0.3,18.5c0.1,0,0.2,0,0.3,0c3.1-0.5,10.8-1.7,18.4-0.9c1.4,0.1,2.4,1.4,2.3,2.8
	c-0.1,1.4-1.4,2.4-2.8,2.3c-7.1-0.7-14.2,0.4-17,0.9c-3.2,0.6-6.2-0.8-6.2-4.7c0-0.9-0.2-12.6-0.3-18.7
	C289.7,191.1,290.8,189.9,292.2,189.9 M302.9,183.5c-8.6,0.3-11.7-9.1-11.7-13.3c0-2.7,2.6-9.3,3.5-12.5c0.3-1.1-1.2-2.4-1.1-3.3
	c0.4-3.8,5.8-4.2,6.3-5.6c0.5-1.2,1.6-5.3,1.4-6.3c-0.2-1.1-7.9-2.6-7.9-6.5c0-4.1,16.4-4.1,29.1-5.4c7.4-0.8,13.4,6.1,12.9,7.8
	c-0.5,1.7-1.9,2.7-3.9,3.2c-1.2,0.3-17,0.7-19.4,1.7c-1.2,0.5-1.9,5.3-1.4,6.2c0.6,1,11,1,12.7,1.1c3.3,0.3,4.3,7.5-1,7.8
	c-1.9,0.1-13.4-0.1-15.2,0.5c-1.9,0.6-3.7,9.1-2.7,10c1,0.9,15.7-2.4,18.3-2.4c2.6,0,6.3,2.9,6.1,5.4
	C328.7,173.6,316.5,183.1,302.9,183.5 M207.9,212.2c-1.8-3.6-3.4-6.7-4.7-9.2c0.3-0.6,0.4-1.2,0.3-1.9c-0.3-1.1-1.2-1.8-2.3-1.9
	c-5.9-10.7-7.2-10.6-8.5-10.6c-1.7,0-3.2,0.1-7.4,15.9c-1.3,0.5-2.1,0.8-2.2,0.9c-1.3,0.5-2,2-1.4,3.3c0.4,0.9,1.2,1.5,2.2,1.6
	c-0.3,1.2-0.6,2.4-0.9,3.8c-0.3,1.4,0.6,2.9,2.2,3.1c1.4,0.2,2.5-0.7,2.8-1.9c0.5-2.2,1.1-4.6,1.7-6.9c2.7-1,6.1-2.3,8.9-3.2
	c1.6,3,3.3,6.3,4.9,9.4c0.6,1.3,2.2,1.8,3.4,1.1C208,215,208.6,213.5,207.9,212.2z M191.2,202.2c0.7-2.6,1.4-4.9,2-6.6
	c0.8,1.3,1.8,3,2.8,4.9C194.5,201,192.8,201.6,191.2,202.2z M372.2,133.6c-7.4,0.5-21.7,16.2-30,26.8c-0.5-1.1-0.8-2.1-0.8-3.1
	c0-4.5,8.4-17.9,10-21.3c1.6-3.5-0.2-8.1-2.3-6.5c-4,3.3-16.6,18-16.6,31.8c0,3.2,0.8,7,2.6,10.5c-2.8,9.2-9.8,29.7-9.6,42.2
	c0.1,6.4,6.6,12.7,10.5,11.9c1.5-0.3,1.8-8.8,3.8-14.5c2.8-8.2,7.1-23.2,8.7-29.7l0,0c17.2,1.2,34.8-16.4,34.8-30.7
	C383.3,136.9,374.8,133.5,372.2,133.6z M354.3,168.8c6.2-10.8,15.3-25.1,18.6-25.1c2.3,0,3.2,2.4,3.2,5.9
	C376.2,160.2,363.4,169,354.3,168.8z"/>
</svg>
