<?xml version="1.0" encoding="utf-8"?>
<!-- Generator: Adobe Illustrator 23.0.3, SVG Export Plug-In . SVG Version: 6.00 Build 0)  -->
<svg version="1.1"
	 id="logosvg.com" inkscape:version="0.48.4 r9939" sodipodi:docname="Forbes-logo.svg" xmlns:cc="http://creativecommons.org/ns#" xmlns:dc="http://purl.org/dc/elements/1.1/" xmlns:inkscape="http://www.inkscape.org/namespaces/inkscape" xmlns:rdf="http://www.w3.org/1999/02/22-rdf-syntax-ns#" xmlns:sodipodi="http://sodipodi.sourceforge.net/DTD/sodipodi-0.dtd" xmlns:svg="http://www.w3.org/2000/svg"
	 xmlns="http://www.w3.org/2000/svg" xmlns:xlink="http://www.w3.org/1999/xlink" x="0px" y="0px" viewBox="0 0 400 300"
	 style="enable-background:new 0 0 400 300;" xml:space="preserve">
<style type="text/css">
	.st0{fill:#33629A;}
</style>
<path id="logo" class="st0" d="M42,110c-0.3,2.8-0.7,20.5-0.7,28.9l0,8.3l2.6,0c1.4,0,4.2-0.1,6.2-0.2c3-0.2,3.9-0.3,5.2-0.9
	c3.1-1.4,5.2-4.6,6.5-9.8l0.7-2.7l2.3-0.1l2.3-0.1v16.8v16.8l-2.3-0.1l-2.3-0.1l-0.6-2.7c-1.2-5-3.6-8.6-6.5-9.9
	c-1.3-0.6-4.7-0.9-11.1-1.1l-3-0.1v6.3c0,6.9,0.4,16.2,0.9,21.3c0.7,7.1,2.5,11,5.7,12.4c0.6,0.3,2.6,0.7,4.3,1
	c1.8,0.3,3.4,0.6,3.7,0.7c0.7,0.4,0.7,4,0,4.3c-0.5,0.2-50,0.2-50.5,0c-0.2-0.1-0.4-0.8-0.4-2.1c0-2.3-0.1-2.2,4.3-3.1
	c3.4-0.6,4.7-1.3,6.2-3.3c2.9-3.9,3.6-11.3,3.6-42c0-28.8-0.5-34.8-3.6-39.3c-1.4-2-3.6-3-7.5-3.5l-2.9-0.4l-0.1-2.3L5.1,101
	l0.9-0.2c0.5-0.1,18.3-0.1,39.6-0.1l38.7,0.1l0.2,1.1c0.1,0.6,0.3,6.9,0.4,14.1l0.2,12.9l-2,0.6c-3,0.9-3,0.9-4.3-2.6
	c-3.3-8.8-7.1-13.8-12.3-16.4c-3.6-1.8-5.2-2-15.4-2h-8.8L42,110z M393,167.9c-2.4-4.7-6.7-7.9-15.8-11.7
	c-7.4-3.1-11.1-5.2-13.4-7.7c-1.8-2-2.4-3.6-2.2-6.7c0.2-2.8,0.8-4.4,2.6-6.3c2.2-2.4,5.3-3.2,9-2.5c6.1,1.3,9.9,5.5,13.3,14.3
	c1.2,3.2,1.3,3.3,3.5,2.5l1.4-0.5l0-3.6c0-2-0.1-6.2-0.2-9.3l-0.2-5.7l-1-0.4c-5.5-2.3-16.1-3.8-23-3.2c-7.8,0.7-13.6,3.2-18,7.8
	c-4.4,4.6-6.4,9.9-6,16.2c0.3,5.2,1.8,9,5.1,12.3c3,3.1,5.5,4.5,12.7,7.3c11.6,4.5,14.7,7.2,14.7,12.8c0,4.7-2.5,8.2-7.1,9.8
	c-1.6,0.6-5.8,0.6-8,0c-5.8-1.5-10.2-6.5-14-15.8l-1-2.4l-1.1,0.1c-0.6,0-1.5,0.2-1.9,0.4l-0.8,0.4l0.1,4.1c0,2.2,0.2,6.9,0.2,10.5
	l0.2,6.4l1.3,0.6c2.6,1.1,10.6,2.9,15.6,3.4c0.6,0.1,4,0.1,7.6,0c6.2-0.1,6.6-0.1,9.7-0.9c9.1-2.4,15-7.5,17.7-15.2
	c0.8-2.4,0.9-3.1,1-6.6C395,173.4,394.6,171,393,167.9z M337.5,155.2c0.2,1.7,0.3,3.7,0.2,4.5l-0.1,1.4l-20.7,0.1l-20.7,0.1l0.1,2.4
	c0.2,5.7,1.4,10.7,3.7,15.1c1,2,1.8,3.1,3.8,5.1c4.5,4.5,8.9,6.3,16,6.3c5.1,0,8.8-1,12.6-3.5c1.1-0.7,2.2-1.3,2.4-1.3
	c0.6,0,1.9,1.7,1.9,2.5c0,1.2-4,5.2-7.9,7.9c-3.2,2.2-8.3,4.1-12.7,4.9c-3.1,0.5-10,0.5-13.1,0l0,0c-13.9-2.5-23.8-12.4-27.1-26.9
	c-0.4-1.9-0.6-4-0.7-8c-0.2-6.4,0.4-10.3,2-15.3c3.2-9.5,8.8-16.2,17.1-20.2c8.7-4.2,20.6-4.5,28.3-0.7
	C331.1,133.9,336.2,142.6,337.5,155.2z M316.5,154.7l-0.2-3.5c-0.6-12.2-3.6-18.9-8.5-18.9c-5.3,0-9.5,6.8-11.2,18.1
	c-0.2,1.4-0.4,3-0.4,3.7l0,1.1l5.3-0.1c2.9,0,7.4-0.2,10.1-0.3h0L316.5,154.7z M193.8,126.8c-3.3,0-5,0.4-7.6,1.6
	c-4.8,2.2-8.4,5.8-11.6,11.6l-1,1.8l0.1-3.2c0.1-1.8,0.2-5.1,0.3-7.4l0.1-4.1h-0.7c-0.9,0-28.6,5.5-29.5,5.9
	c-0.5,0.2-0.6,0.5-0.6,1.8c0,1.4,0.1,1.6,0.6,1.7c0.3,0.1,1.6,0.3,2.8,0.6c2.5,0.5,3.2,0.9,4.2,2.2c1.9,2.5,2.3,6.8,2.2,25.3
	c0,15.1-0.3,22.6-1,25c-0.9,2.9-2.4,4.4-5.1,4.9c-0.9,0.2-2,0.4-2.6,0.5l-1,0.2l-0.1,1.9c-0.1,1.4,0,2,0.3,2.2h0
	c0.2,0.1,9.7,0.2,21.1,0.2l20.7-0.1l0.1-2.2c0-1.2,0-2.2-0.1-2.2c-1.6,0-6.5-0.7-7.3-1c-2.3-1-3.5-3.1-4-7.3
	c-0.6-5-0.9-17.4-0.8-27.6c0.2-10.3,0.2-10.3,0.8-11c1.5-1.6,5.3-2.9,8.7-2.9c2.7,0,5.6,0.7,8.6,2.1c1.4,0.7,2.8,1.2,3,1.1
	c0.4-0.1,7.2-18.1,7.2-19C201.6,128,197.7,126.8,193.8,126.8z M142.8,173.1c-2.9,13.5-11.3,23-23.6,26.6c-1.3,0.4-3.4,0.8-4.6,1
	c-2.5,0.3-10.2,0.3-12.6,0c-6.8-1-12.7-3.9-17.3-8.4c-3.8-3.7-6.2-7.9-8-13.5c-2.8-8.8-2.8-20.2,0-28.8c2.7-8.4,8.9-15.7,16.4-19.4
	c10.4-5.2,25.1-4.9,34.8,0.8c8.7,5.1,14,14.2,15.4,26.7C143.8,161.8,143.5,169.8,142.8,173.1z M121.8,165c0-15.2-2.3-24.8-7.4-29.9
	c-2.1-2.1-3.6-2.8-6.3-2.8c-6,0-9.8,6.3-11.3,18.5c-0.7,5.6-0.7,19.1,0,24c2.1,15.3,7.6,22.6,15.3,20.3c2-0.6,4.4-2.9,5.7-5.4
	C120.6,184.7,121.8,177.1,121.8,165z M268.9,152.1c0.7,3.3,1,11.6,0.5,15.8c-0.4,3.5-1.6,8.3-2.8,11.4
	c-4.6,11.7-14.5,19.3-27.7,21.3c-3,0.5-12.5,0.5-16.6,0.1h0c-2.8-0.3-11.3-1.7-14.2-2.4l-2.1-0.5l0.2-11c0.4-26.4,0.4-40.8,0.2-54.8
	c-0.2-13.7-0.3-15.2-0.8-17.2c-0.7-2.6-1.6-4.4-2.8-5.2c-0.5-0.3-1.7-0.8-2.7-1c-3.5-0.8-3.3-0.7-3.4-2.2c-0.1-0.9,0-1.5,0.3-1.7
	c0.3-0.2,28.9-5.7,29.8-5.7c0.3,0,0.3,3.7,0.2,16.3c-0.1,8.9-0.1,16.3,0,16.3c0.1,0,1.1-0.5,2.3-1c3.6-1.7,6.9-2.4,11.8-2.6
	c3.2-0.1,4.7,0,6.4,0.3C258.1,130.5,266.1,139.3,268.9,152.1z M247.4,154.5c-1.5-9-4.8-14.9-9.7-17.3c-2-1-2.3-1.1-4.7-1.1
	c-1.7,0-3.2,0.2-4.4,0.5l-1.9,0.5l-0.1,10.2c-0.2,13.1,0.3,46,0.6,46.9c0.2,0.6,0.5,0.7,1.6,0.8c2.7,0.2,3.1,0.2,4.6-0.1
	c2-0.4,3.6-1.2,5.3-2.7c4.3-3.8,7.5-11.7,8.7-21.5C248.1,166.9,248,157.8,247.4,154.5z"/>
</svg>
