<svg width="64" height="64" viewBox="0 0 64 64" fill="none" xmlns="http://www.w3.org/2000/svg">
<g clip-path="url(#clip0_93_632)">
<rect width="64" height="64" fill="white"/>
<rect y="12" width="5" height="5" fill="#919191"/>
<rect x="12" y="12" width="5" height="5" fill="#919191"/>
<rect x="48" y="12" width="5" height="5" fill="#919191"/>
<rect x="60" y="12" width="5" height="5" fill="#919191"/>
<rect x="24" y="12" width="5" height="5" fill="#919191"/>
<rect x="36" y="12" width="5" height="5" fill="#919191"/>
<rect x="5" y="19" width="5" height="5" fill="#919191"/>
<rect x="17" y="19" width="5" height="5" fill="#919191"/>
<rect x="53" y="19" width="5" height="5" fill="#919191"/>
<rect x="29" y="19" width="5" height="5" fill="#919191"/>
<rect x="41" y="19" width="5" height="5" fill="#919191"/>
<rect x="5" y="30" width="5" height="5" fill="#919191"/>
<rect x="17" y="30" width="5" height="5" fill="#919191"/>
<rect x="53" y="30" width="5" height="5" fill="#919191"/>
<rect x="29" y="30" width="5" height="5" fill="#919191"/>
<rect x="41" y="30" width="5" height="5" fill="#919191"/>
<rect x="5" y="42" width="5" height="5" fill="#919191"/>
<rect x="17" y="42" width="5" height="5" fill="#919191"/>
<rect x="53" y="42" width="5" height="5" fill="#919191"/>
<rect x="29" y="42" width="5" height="5" fill="#919191"/>
<rect x="41" y="42" width="5" height="5" fill="#919191"/>
<rect x="5" y="54" width="5" height="5" fill="#919191"/>
<rect x="17" y="54" width="5" height="5" fill="#919191"/>
<rect x="53" y="54" width="5" height="5" fill="#919191"/>
<rect x="29" y="54" width="5" height="5" fill="#919191"/>
<rect x="41" y="54" width="5" height="5" fill="#919191"/>
<rect x="5" y="5" width="5" height="5" fill="#919191"/>
<rect x="15" y="5" width="5" height="5" fill="#919191"/>
<rect x="53" y="5" width="5" height="5" fill="#919191"/>
<rect x="29" y="5" width="5" height="5" fill="#919191"/>
<rect x="41" y="5" width="5" height="5" fill="#919191"/>
<rect width="5" height="5" fill="#919191"/>
<rect x="10" width="5" height="5" fill="#919191"/>
<rect x="48" width="5" height="5" fill="#919191"/>
<rect x="60" width="5" height="5" fill="#919191"/>
<rect x="24" width="5" height="5" fill="#919191"/>
<rect x="36" width="5" height="5" fill="#919191"/>
<rect y="24" width="5" height="5" fill="#919191"/>
<rect x="12" y="24" width="5" height="5" fill="#919191"/>
<rect x="48" y="24" width="5" height="5" fill="#919191"/>
<rect x="60" y="24" width="5" height="5" fill="#919191"/>
<rect x="24" y="24" width="5" height="5" fill="#919191"/>
<rect x="36" y="24" width="5" height="5" fill="#919191"/>
<rect y="36" width="5" height="5" fill="#919191"/>
<rect x="12" y="36" width="5" height="5" fill="#919191"/>
<rect x="48" y="36" width="5" height="5" fill="#919191"/>
<rect x="60" y="36" width="5" height="5" fill="#919191"/>
<rect x="24" y="36" width="5" height="5" fill="#919191"/>
<rect x="36" y="36" width="5" height="5" fill="#919191"/>
<rect y="48" width="5" height="5" fill="#919191"/>
<rect x="12" y="48" width="5" height="5" fill="#919191"/>
<rect x="48" y="48" width="5" height="5" fill="#919191"/>
<rect x="60" y="48" width="5" height="5" fill="#919191"/>
<rect x="24" y="48" width="5" height="5" fill="#919191"/>
<rect x="36" y="48" width="5" height="5" fill="#919191"/>
</g>
<defs>
<clipPath id="clip0_93_632">
<rect width="64" height="64" fill="white"/>
</clipPath>
</defs>
</svg>
