<svg width="255" height="116" viewBox="0 0 255 116" fill="none" xmlns="http://www.w3.org/2000/svg">
<path d="M37.0589 88.9167H31.043L30.1758 83.0625C29.7928 80.4604 27.1568 78.5 24.0487 78.5H17.9488C14.8409 78.5 12.2047 80.4604 11.8193 83.0625L10.9521 88.9167H4.94121C2.21612 88.9167 0 90.7854 0 93.0834C0 95.3813 2.21612 97.2501 4.94121 97.2501H5.06964L7.41917 115.073C7.48831 115.602 8.01709 116 8.64709 116H33.3529C33.9829 116 34.5116 115.602 34.5808 115.073L36.9304 97.25H37.0588C39.7839 97.25 42 95.3812 42 93.0833C42 90.7854 39.7839 88.9167 37.0589 88.9167ZM14.2702 83.3208C14.5024 81.7604 16.0836 80.5833 17.9488 80.5833H24.0487C25.9141 80.5833 27.4952 81.7604 27.7274 83.3208L28.5575 88.9166H13.4401L14.2702 83.3208ZM32.2461 113.917H9.75399L7.55756 97.25H34.445L32.2461 113.917Z" fill="white"/>
<path d="M21.0001 76.4167C24.4045 76.4167 27.1765 74.0792 27.1765 71.2084C27.1765 68.3376 24.4045 66 21.0001 66C17.5957 66 14.8237 68.3375 14.8237 71.2083C14.8237 74.0791 17.5957 76.4167 21.0001 76.4167ZM21.0001 68.0833C23.0433 68.0833 24.7059 69.4854 24.7059 71.2083C24.7059 72.9312 23.0433 74.3333 21.0001 74.3333C18.9569 74.3333 17.2942 72.9312 17.2942 71.2083C17.2942 69.4854 18.9569 68.0833 21.0001 68.0833Z" fill="white"/>
<circle cx="32" cy="80" r="1.5" stroke="white"/>
<line x1="209.002" y1="0.500006" x2="254.013" y2="0.714536" stroke="#EC5242"/>
<path d="M33 81C36 82 37 84 36.5 89" stroke="white" stroke-linecap="round" stroke-linejoin="round"/>
<path d="M5.47055 95.1667H37.5882C38.9495 95.1667 40.0588 94.2312 40.0587 93.0833C40.0587 91.9354 38.9495 91 37.5881 91H5.47055C4.10933 91 3 91.9355 3 93.0834C3 94.2312 4.10922 95.1667 5.47055 95.1667Z" fill="#EC5242"/>
</svg>
