<?xml version="1.0" encoding="utf-8"?>
<!-- Generator: Adobe Illustrator 23.0.3, SVG Export Plug-In . SVG Version: 6.00 Build 0)  -->
<svg version="1.1"
	 id="logosvg.com" inkscape:version="0.48.2 r9819" sodipodi:docname="KONAM_logo.svg" xmlns:cc="http://creativecommons.org/ns#" xmlns:dc="http://purl.org/dc/elements/1.1/" xmlns:inkscape="http://www.inkscape.org/namespaces/inkscape" xmlns:rdf="http://www.w3.org/1999/02/22-rdf-syntax-ns#" xmlns:sodipodi="http://sodipodi.sourceforge.net/DTD/sodipodi-0.dtd" xmlns:svg="http://www.w3.org/2000/svg"
	 xmlns="http://www.w3.org/2000/svg" xmlns:xlink="http://www.w3.org/1999/xlink" x="0px" y="0px" viewBox="0 0 400 300"
	 style="enable-background:new 0 0 400 300;" xml:space="preserve">
<style type="text/css">
	.st0{fill:#990014;}
</style>
<path id="logo" class="st0" d="M79,180.3c-15.4,1.5-24.4-0.9-30.8-7.6c-1.6-1.7-16.8-19.5-16.8-19.5c-0.9-1.1-1.8-2.1-2.3-2.9h-0.1
	c0,0.8,0.1,1.3,0.1,2v27.4H14.6v-53.1c0-3.5-1.5-4.5-3.5-5.4c-0.5-0.2-0.4-0.9,0.2-0.9h3.3h9.6c2.7,0,4.8,2.2,4.8,4.8v19.4
	c0,0.8,0,1.7-0.1,2.5h0.1c0.6-0.7,1.2-1.4,2.3-2.4l24.9-24.3h14.7l-27.2,25.9c0,0,17.1,20.2,21.9,25c4.3,4.4,8.3,6.8,13.5,8
	C79.8,179.3,79.8,180.2,79,180.3z M141.9,150c0,17.9-14.8,31.9-34.8,31.9c-21.2,0-34.8-14-34.8-31.9c0-17.9,14.8-31.9,34.8-31.9
	C128.3,118.1,141.9,132.1,141.9,150z M125.8,149.2c0-13.4-6.8-25-18.8-25c-12,0-18.8,11.2-18.8,26.6c0,13.4,6.8,25,18.8,25
	C119,175.8,125.8,165,125.8,149.2z M347.7,120.3h-8.3l-14.6,33.8c-0.7,1.5-1.1,2.7-1.4,3.6h-0.1c-0.3-0.9-0.7-2-1.3-3.4l-12.9-30.2
	h0c-0.9-2.2-3.1-3.9-5.8-3.9h-12.8c-0.6,0-0.7,0.7-0.2,0.9c1.7,0.8,3,2.1,2.5,5.4l-8.7,53.2h9.2l5.8-37.5c0.3-1.9,0.6-4.2,0.7-5.4
	h0.1c0.6,1.5,1.3,3.4,2.1,5.3l16,37.6h4.8l16.2-38.3c0.9-2.3,1.6-3.9,2-5.1h0.1c0.2,1.5,0.5,3.7,0.8,5.9l6,37.4h14.7l-8.9-54.2
	C353.3,122.8,350.8,120.3,347.7,120.3z M384.4,120.3H371c-0.6,0-0.7,0.7-0.2,0.9c2,0.9,3.5,1.9,3.5,5.4v53.1h15v-54.6
	C389.2,122.4,387.1,120.3,384.4,120.3z M199.4,154.3c0,1.7,0.1,2.7,0.1,4.2h-0.1c-1.1-1.6-2.4-3.3-4.3-5.5l-25.5-29.5
	c-2-2.3-3.6-3.2-7.3-3.2h-13c-0.6,0-0.7,0.7-0.2,0.9c2,0.9,3.5,1.9,3.5,5.4v53.1h9.7v-38.2c0-2.1-0.1-3.6-0.1-5.3h0.1
	c1.8,2.4,4.3,5.6,6.3,7.9l30.6,35.6h5.1c2.7,0,4.8-2.2,4.8-4.8v-54.6h-9.7V154.3z M254.5,124l25.8,55.7h-16.4l-6.1-13.7h-27
	l-6.2,13.7h-11l25-53.4c1-2.1,0-4.4-1.3-5.1c-0.5-0.2-0.4-0.9,0.2-0.9h11.3C251.5,120.3,253.5,121.9,254.5,124z M254.7,158.8
	l-9.1-20.4c-0.4-1-0.8-1.9-1-2.5h-0.1c-0.1,0.5-0.5,1.4-1,2.5l-9.3,20.5H254.7z"/>
</svg>
