<svg viewBox="0 0 400.06 144.29" xmlns="http://www.w3.org/2000/svg"><g fill="#fff"><path d="m15.19 18.56-.08-2.21v-2.21l-.11-1.23-.34-.29-.87.14-1.25-.06-.18-.37.14-.34.52-.73 1.65-1.73 1.33-1.94 1.08-2.14.74-1.19.31-.21.33-.14.18.27.18 1-.21 3.15.08.12.35.31 3.21-.68 1.26-.17.42.7-.12.2-.64 1.53-1.14.55-2.57.69-.49.07-.3.35v.37l-.08 2.22-.06 2.21v2.2l.14 2.22.19 1.48 1 1.09.35.1 1.43-.35 2.36-2.38.19-.59.13-.36h.43l.29.2-.04 2.3-1.21 1.78-1.6 1.4-2.58.9h-2l-2.15-1.7-.15-.87-.1-.88.1-1.9-.13-1.9.09-1zm1 3.63-.19-.19v-.11h.11v.11zm1.81-.19h-.19l-.06-.7.1-.32v-.08l-1.07-.38h-.28l-.11.19.44.89.26.25zm-.85-4-.18.28.06.64.34.79.64-.6v-.43l-.38-.22-.39-.33zm-.62-1.43-.09.08.16 1h-.09l.18-.23zm1.1-1.38h-.07l-.11.09.05.09h-.07zm.74 8.81v.11h-.09zm-1-1.57v-.06zm.87 2.57-.07.09z"/><path d="m400 64.12-.19.25-1.33 2.63-2.11 2-2.9 1.23h-2l-1.47-.65-2.43-2.17-.69-1.78-.51-1.81-.42-2-.33-2-.16-2.07.14-2.28-.16-2.28v-2.28l.13-2.28.05-2.28-.14-2.35-.32-3-.59-2.26-1.22-2-1.76-1.46-2.09-.88-2.4-.55-2.42.46-2.49 1.39-1.29 1.76-.9 2-.62 3.35-.06 2.28.1 2.23-.18 2.23v2.23l-.03 2.22.16 2.23 1.12 3.1.9 1 1.3 1.57.9.73.05.91-.54.62-.76.14-3.11-.57-2.23-.29-2.19-.37-2.75-.41-2.78-.27-1.11-.31-.44-1 .43-1 1-.57 1.51-1.15 1.46-2.85.09-1.9.06-1.9-.18-2.28v-2.33-2.13l.2-2.12-.18-2.12-.05-2.12v-2.72l.19-2.73-.26-1.25-1-1.85-1.91-2-.82-.78-.59-1.28.55-.62h.75l2.13.23 2.54.18 3.22.66 1.14.11 1.25 1.28.2 1.79-.17 1.54.37.05h.34l.48-.61.84-.77 2.28-1.09 2.43-.52 2.55.05 2.52.44 2.41.88 2.49 1.4 2.26 1.72 1.39 1.55 1.09 1.73 1.08 2 .49 2.26.27 2.28.25 2.65-.12 2.16v2.15l.17 2.15v2.08l-.08 2.09v.64l.19 1.83-.05 1.84v1.51l.77 1.76.88.27 2.83-1.11.61-.82.51-.34 1.29-.14.22.28zm-35-2.85v.34h.17l-.09-.25zm-.29-2.51-.06-.22-.56-.65v.15l-.13-.49v-.75l-.14-.65-.19-.09h-.39l-.69 1 .05.31-.22 1.23-.33.58-.42-.67-.19.19-.05.44-.33-.06-.09.05.32.48-.48.71-.11.21.36.29.35-.19 1.16-.31.79.37.5-.27.3-.54-.12-.24-.24-.27h.05l.15-.37.39-.48.19.12v.28zm28 8.56-.05-.15zm-5.12-1.55v.1.13l.28-.09h.11.09l.25-.18.5.18.37.08.09-.46-.9-.72v.09l.06.78-.37.17-.2.13zm-24.24-21.51-.1-.16zm1.27-7.63h-.26v.17l.3-.1zm5.7-2.37.17-.06-.15-.35-.08.23zm22 34 .22-.17-.24-.14-.07.23.1.24.09.14v-.13l-.32.09zm-27-8.77-.2.22.16.17v.18h.1.07v-.22l-.18-.23zm5.68 1.51-.32.07-.36.6.15.66.28.13.48-.06h-.11l.27.45v.24l.14.12.27-.28v-.93l-.31-.19-.44-.43.09-.16zm19.59-12.49.12-.23.09-.17-.18-.11v.22l-.09.23-.12.1zm-4.24 9.14h.36l.44.08.12-.16-.13-.09-.45-.13-.37-.13zm3.55 9.63.07-.1.1-.05-.13-.15h-.13v-.08.24zm1.82-1.5.25.18-.15.15.36.62 1-.6.16-.06v-.62l-.52-.5.19-.25-.23-.52-1.84-.37-.23.12v-.66l.08-.37-.11.07-.66-.48-.54-.39-.08-1.34-.08-2.66-.07-2.66.09-2.66.06-2.66-.07-2.66-.1-2.66.11-2.79-.51-2.6-.91-2.48-1.81-2.38-1.65-1.36-1.88-1-3.17-.86-3.4-.09-.39-.12-.34.48.36.48.64-.09 3.17.17 2.23.54 2 1.14 1.85 1.11 1.22 1.78.82 1.62.68 1.71.21 3.3v2.45 2.45 2.44l.12 2.45v2.45l-.23 2.4.06 3.55v.64l.71.25.34-.33-.18.71.42.43.37-.05.3.41.44.25-.55.37-.27.45v.1l1 .15.5-.1h.74l.09.21.06.49.38.48h-.77l-.19-.3-.55-.14v.24zm-28.29-10.96v-.56l-.16-.14-.13.31.26.27zm-.38-13.34-.43.3v.33l.31-.08.08-.49h.1zm27.83 26 .32.4-.79.64.25.36.73-.39.08-.29-.15-.29-.31-.38v-.15-.34l-.11-.18h-.25v.1l-.14.25zm-26.72-21.74v.18l.3-.41v-.5l-.5-.17-.37.27v-.11l-.65.75-.17.83.06.29.09.47-.17 1 .12.72.1.69.43.15.4-.31.07.11.51-.44v-.07h-.07l.31-.7-.37-1.42h-.1l-.09-.38.34-.21zm2.12-.54v-2.49-2.49l-.1-2.49-.11-2.41.07-2.41.06-.77-.32-.27-.53-.06-.23.49v1.83l.08 1.84.1 1-.14 2.21.16 2.22v1.26l-.19 2.15v2.16l.08.5v2.09l-.05 2.08-.06 2.16.1 2.2.08 1.77v.63l.35.08.27-.13.09-.44.07-1.77.06-2.18v-2.22l-.1-2.18.19-2.18zm20.72 15.06.24-.2.33-.84-.22-.23-.19.07-.52.31-.23.45zm-14.41-27.15-.17-.11-.56-.06-.31.59.17.25.21.1.62-.58zm22.41 34.52-.38-.43-.64.24.12.29h.64zm-25.65-6 .28-.38-.36-.44-.23.38zm22.46-11.8-.08-.21-.29-.39-.43.17.17.23.42.2zm-28-10.23.11-.39-.35-.33-.26.35zm6.19-6.86-.37-.17-.28.24.09.2h.16zm-5.62 3.26.27-.25-.26-.24-.09.17zm5.55-1.81-.21.11-.08.26h.31l-.08-.21zm25.33 32.11-.16.15.13.32.25-.29zm-7.16-3.63-.3-.2-.17.12.27.28zm-16.46-28 .16-.16-.22-.24v.21zm16.6 0h-.3l.09.24zm-17.39.79.14-.31h-.25zm15.42 23 .06.23.33-.07-.18-.13zm4.37 1.87-.26-.06-.14.2h.23zm-22.76-9.07-.17-.17h-.23l.19.23zm24 11.48.1.29.16-.18zm-.47-12.12-.14.21h.26zm-27.31-7.21v.25l.24-.11zm-.57-1.21.22-.15-.25-.13z"/><path d="m75.07 111.34v2.92l.09 2.91v2.19l.16 2.18-.23 2.18v2.19 1.15l.82 2 1.33 1.63 2.2 1.66 1.7 1.35 1 .76.33.65-.64 1h-.49l-1.15.18-3-.23-2.19-.47-2.19-.16-2.2-.12-2.5-.44-2.53-.13-2.26-.33-.83-.34-.7-1 .46-1.16.79-.13 3.1-1.71 1.18-.73 1.24-1.34.36-1.81-.06-2.79.15-2.55-.23-2.56.09-2.55-.05-2.55-.06-2.55.07-2.55.15-2.56-.06-2.53-.09-2.6.18-2-.01-2.22-.4-1.6-1.38-2.84-2-1.61-1.69-1.34-1.53-1.16-.33-.63.1-.85.26-.06.81-.17 2.07.26 2.09-.3 3.24.63h2 1.76 3.18l2.2.37 2.23-.1 1.18.47.71.78-.5.97-.76.84-.22.94.22 1.33.52 2.16.81 2.07.63 2.19 1 2.09.73 2.15 1.31 3.93.63 2.26.92 2.16.85 2.19.6 2.27.85 2.18.72 2.1.71 2.1.16.49h.37l.24-.45 1-2.47.81-2.54.8-2 1-1.94.83-2.46.91-2.43 1-2.39.78-2.48 1-2.48 1.19-3.31.57-2 .79-1.87.42-1.71-.17-1-1.22-.92-.52-.8.49-.83.86-.08 1.9-.2 2.4.08 2.41-.21 3.29-.1h2.41l.75-.1 2.47-.08 2.54-.28h1.26l.56.26.28.18-.27 1.31-.91.89-1.76 1-1.59 1.26-1.09 1-1.27 1.56-.22 2-.09 3.2v2.28 2.28l-.12 2.49v2.49 2.5 2.4 2.5l.11 2.41-.1 2.11.13 2.11-.13 2.11.09 2.79.12 1.13 1.38 2.65 2 1.29 1.92 1.25 1.39.82.67.6-.76 1.29-.88.18h-2.35l-2.37.26h-2.66-3l-3 .13-3 .11-3 .13-.89-.11-.55-.89.37-1.17 1.18-.51 2.84-1.91 1.5-1.38 1.17-2.31.22-1.38-.17-2.41.16-2.41v-2.4-2.41l.07-2.41-.12-2.4v-2.7l.09-2.71.15-2.7-.06-2.41-.18-2.4.08-3.33-.09-1v-.06h-.34v.56l-1 3.47-1.17 2.47-.77 2.55-.89 2.51-.94 2.48-1 2.45-.71 2.06-.75 2.06-.85 2-.69 2.13-1 2.38-.7 2.48-1.1 2.34-.66 2.22-.93 2.12-.91 2.12-.78 2.18-.56 1-1.78.64-.59-.25-.63-1.11-.25-1-1.11-2.59-.78-2.68-1-3.25-1.33-3.75-.8-2-.79-2-.57-2.11-.86-2-.91-2.55-.77-2.59-.83-2.56-.82-2.13-.81-2.13-.73-2.25-.68-2.17-.68-1.78-.71-1.76-.26-1h-.24l-.1.1v.75l-.06 2.66-.06 2.66v2.15l.1 2.15-.18 2.16v3.16zm35.93 22.66-.06-.14zm-26.4-20.42v.09zm-.6 2.49-.1-.13zm.43-.56.05-.11v-.13-.1zm23.66 20.17.06-.07v-.19zm6.75-25.68v.1l.06.11v.12zm-32.84-14.68-.13.06-.06.12.2-.08zm-8.93 39v-.11l-.07-.21-.14.08-.14-.14.15.28zm-2.92-10.68.27-.2v-.22h-.1v.16l-.37.18-.06.11.09.25-.09-.25zm40.08 9.34.58.14.21-.17.06-.23-.24-.13-.56-.1-.11.36h-.1zm-4.14 2.86-.13.54.38.32.31-.31-.13-.61-.25-.23v.07l-.73-.35v.24l.69.08-.07.25zm-16.64-3.61.25.21.19.34.07.1.05-.17.33-.71-.17-.4-.38-.3v.14l-.21.65-.07.1zm1.28 2.3 1.35.11.12-.24-.33-1.07-.32-.07h-1v.48l.22.13.25.31-.33.34-.69-.62-.07-.21-.08.22.3.71h.32zm-20.62-44-.11-.14.41.29.21-.05v-.29l.19-.3.46.38.44-.14-.23-.3-.48-.14-.08-.17-.34-.38-1.2.64-.28.58.15.13.21-.86.28.31zm3.56 41.47-.12-.1.26.53.08.71-.11.12.17-.07.21-.08h.17l.67.89.31-.09h.51l-.19.2.31.19.06-.17.3-1.21.53-.86-.39-.39-.63.06-.16-.38-.35-.36-.75-.17-.65-.45-.68-.16h-.22l-.25.06h-.57l-.77-.48-.51-1.55-.21-.61-.51-.63-.38-.09v.32.36l-.25 1h.27.09v-.27l.26-.22.16.29-.17.86.26.75.47.47h-.55v.34l.12-.12.33-.28h.53v.2.12l-.77.6.09.55 1 .46-.14-.11.09.5.52.28h.48v-.17l.53-.66zm4.72-39.45-.45.49.26.71.69 2 .88 2 .53 2.09.86 2.34.82 2.35 1.07 2.26 1 2.57.91 2.58.7 2.66.78 2 1.38 3.66.74 2 .66 2.12 1 2 .76 2.08.56 2.15.52 1.15h.24l.14.06.09-.51 1-2.25 1.07-2.2 1-2.25.82-2.51 1.2-2.34.88-2.48 1-2.4.26-.45-.29-.47-.46.14-.5.6-.58 2-.88 1.87-.75 1.93-.91 2.36-1 2.31-1.11 2.28-.77 1.86-.17.15v-.17l-.5-1-1-2.22-.8-2.3-.83-2.29-.67-2.35-1.08-2.7-1.56-4.45-.87-2.24-.7-2.3-.84-2.25-.78-2.08-.92-2-.51-2.17-.74-2.08-1.25-3.32-.52-.58zm-5.65 17.77-.09-2.28v-2.28l-.16-2.28.22-2.57v-2.52-2.56l-.23-2.57v-1.51l-.07-.45-.12-.4-.56.29v.39 3.54l-.08.5.21 2.7v2.68l-.21 2.7.07 2.41.13 2.4-.2 2.91.2 1.83v1.83l-.15 2.79v2.78l.22 2.79-.32 3.56.13 1.77.11.74.26.29.38-.21.08-.37.2-1-.23-3 .08-3v-2.38l-.06-2.38.08-2.38.14-2.38zm39.58 2.33.09 2.55v2.56l.15 2.55-.22 2.56v2.55 2.55l.23 1.91v1.89l.09.86.33.38.31-.32v-.76-2.44l.1-2.43-.22-2.43v-2.43l.2-2.44-.05-2.31-.11-2.32.16-2.32-.17-2.32v-2.32l.13-2.31v-2.32l-.21-2.32.22-3.24-.13-2.32v-3-.64l-.38-.19-.29.22-.29.59.24 2.41-.1 2.07v3l.06 2.06-.08 2.63-.14 2.63.05 2.63zm-41.93-23.65.49-.26-.11-.25-.11-.06-.33.4h-.23zm37.61 45.26h.29l.17-.47-.06-.11-.17.2zm-.9.65-.41-.26v.17l.25.2zm-36.77-43.41-.11-.21-.22.15.07.18zm36.89 44.2-.06.34h.16l.14-.14zm-34.94-47.35.17-.15-.18-.1-.07.07zm-2.4 37.33.31-.09h-.17zm12.18-29.5v-.24l-.06.06zm-11.64 25.58-.2.13h.13zm3.89 6.33v.25l.11-.09zm16.93 7.48h-.24l.1.11zm-22-6.88-.15.21h.14zm4.5.45v-.26l-.11.1z"/><path d="m149.16 75.7-3.42.1-.63.09-2.66-.11-2.19-.34-2.14-.55-2.47-1.19-1.52-1.49-.51-2.08-.14-2 .69-2.36 1.23-2.11 2.37-2.09.85-.54v-.45l-.74-1.2-1.6-2.25-.8-2.25-.41-2.5.09-2.52.44-2.48 1-2.32 1-2.06 1.67-1.57 1.73-1.43 2-1.4 2.24-1 2.39-.56 2.09-.24h4.28l.48.25.2-.47v-.66l-.43-1.19v-1.98l.36-1.9 1.73-3.09 1.66-1.42 2.11-.71 2.27-.4 2.28.3 1.95.7 1.18 1.7.57 2-.32 2.87-.89 1.72-1.25 1.48-2.2 1-.27-.14-.78-.34-.12-.94.62-.65.66-1.53-.1-1.28-1.27-.85-2.88 1.23-.85 2 .51 2.09.82 2 1.27 1.41 1.09 1.63 1.14 2.13.67 2.32.34 3.15-.28 2.13-.66 2.19-1.09 2-1.26 1.88-1.46 1.7-1.7 1.48-2 .94-2 1-2.1.49-2.1.35-2.14.19h-2.16l-2.14-.58h-.53l-1 .1-.38.54-.83 1.45.68 2 1.53.75 3.14.46 2.28-.18 2.28.16 2.28-.07 2.28-.16h2l2.41.21 2.35.52 2.73 1 1.32 1.35 1.05 1.54.78 2 .28 2.19-.47 2.8-.82 2.73-1.65 2.26-1.88 2-1.62 1.35-1.67 1.35-1.88 1-2.52 1-2.66.51-2.63.56-1.37.27-2.65.24h-2.65l-.89.21-2.46-.14-2.41-.6-2.12-.61-2-1-1.58-1.89-1-2.24-.1-2.29.9-2.23 1.67-1.68 2.11-1.29 2.47-.27 3.22 1.1.32.83-.76.88-1.19.39-1.15.77-.57.86 1.13 2.27 1 .68 1.82.49 1.88.13 2.15.09h2.15l2.13-.33 2.58-.64 2.58-.67 1.92-1 1.63-1.41 1.33-1.63.56-2-.32-2.11-1.24-1.1-1.3-.51-2.64-.21-2.29-.1h-2.28-1.77zm.07-5.52-.06.07h.07zm-14.71-1.28.29.24h-.07zm5.84-.77v.05-.05h-.05zm-4.62-1.27h-.19l-.28.09h-.24-.11v.19l.25.06.09-.28.29.11.19-.09.29-.14.5.29.34-.13v-.28l-.87-.68-.07-.07.08.7zm18-25h-.05zm-15.45 39.44h-.23l.06.1.12-.15h.12zm8.93-8.07h-.07.09v.12zm-8.7-1.54-.17.15h.11v-.22h.12zm2 20h-.14l-.06.11.15-.12zm-1.77-25h.48l.33.19-.12.37.14.38.26.09.4-.53-.49-.29-.21-.05-.36-.19-.4-.19v.15zm25.59 6.59-.23-.22h-.15l.09.28zm-1.25-3 .16.16.21-.06v-.15l-.15-.14-.17.08-.2-.07-.1.15.08.13zm3.05 3.46-1-.28.78.48.28.83h.29v-.19l-.46-.61h.3v-.2l-.16-.16zm-29.71 6.66.15.6.25.06h.17l-.24-1.16-.36.27zm1.79-15.5-.42.37-.33.4v.15l.07.12h.82l1.14-.2v-.27l.06-.25-.17-.19-.16-.23-1 .09-.06-1v.06l-.69-.51-.23-.49-.43.13-.27.42.47.71.75.47zm-3.49 5.54-.18-.19v.14l.27.05.37 1.14v.22l.08.38.73.7.13.22.53-.2.86-1.11.4-.39.14-.18v-.19l-.74-.68-.37-.19-.08.39v.51l-.49.39-.66-.35zm22.1-21.17-.54-3.33-1.66-2.31-2.51-1.23-2.47-.27-2.43.58-2.08 1.39-1.71 2.35-1 2.71.09 2.91.39 2.25 1.64 2.32 2.52 1.27 1.93.09 2.26-.41 2.18-.89 1.77-1.91 1.18-2.31zm7.69 27.23-.72-2.27-1.3-1-2.81-1.08-3.34-.65-2.71-.26h-2.73l-2.11.1-2.1-.14-2.11.12-3.45-.75-2.81-2-.29-.24h-.31l-.18.32-.16.32 1.26 1.43 2.24 1.18 3.11.54 2.14.17h1.4 2l2-.16 2.84.31 2.82.27 1.89.19 1.84.46 1.61 1 .94 1.72.08.64.26.15.6.07zm-19.42 14.41 2.37-.11 2.33-.44 2.68-.73.46-.18.14-.39-.34-.28-.49.15-2.86.53-2.74.48-2.53-.12-2.52-.17-2.1-.43-2-.81-2.22-1.9.1-2.64.28-.7-.16-.48h-.37l-.43.28-.7 1.82.36 1.92.59.51 1.22 1.46 1.83 1 2 .53 2.53.38zm15.9-41.47-.2-2.32-.8-2.19-1.12-2-.18-.33-.22-.2-.4.07v.38.39l.61.82.69 1.9.57 1.93.16 2-.41 2.11-.82 2-1.33 1.46-1.3 1.45-1.66 1.27-1.76 1.12-1.13.59-.22.31-.07.39h.36l.42.13 1.91-1 1.69-1.34 1.69-1.52 1.52-1.64 1.09-1.76.7-2zm-19.15-7.07-.34.1-.35.54-1.28 2.24-1 2.38-.51 2-.06 2.1.4 1.92.48 1.9 1.41 2.25.21.36.38-.1.12-.32-.12-.34-.79-1.3-.73-2.55-.39-2.55.28-2.37.79-2.46 1.29-2.24.45-.77.18-.34zm-8.63 44.29-.09-.84h-.17-.15l-.21.83.14.37.26.11zm6.22-5.52.3-.24v-.13l-.19-.06-.31.1v.26zm8.14-10.51.28-.17-.08-.16h-.05-.37l-.22.2.22.17zm-12.58-2.72-.22.09.16.49h.26l.07-.31zm7 .52h-.16l.07.12.17.1.21.07v-.27zm-5.7 1.71.2-.08-.15-.2h-.1zm5.48-15.6h-.19l.11.08zm-2 18.78v.17l.16-.09zm17.3-35.48.16.14v-.12zm-17.45 25.91-.16-.08v.14zm-.28-.92.07.18v-.14zm17.45 26.06v-.17l-.08.09zm-21.59-22.55.18-.08h-.14zm26.79 4.41.13-.14h-.13z"/><path d="m338.81 100.88-.1 2.74v2.74 2.73 1.6l1.21 2.85 2.18 2.46.55.74.7 1-.64.91h-1.24l-2-.27-2-.11-2-.23-3-.49-.63-.06-3.29-.15-1-.6-.37-.78.43-1.06.82-.63 1.54-1.17 1.42-2.67.13-1.58v-2.38l.07-2.39v-2.38l-.15-2.39.06-2.16-.14-2.15.14-2.16-.14-2.84-.85-1.85-1-1.73-1.68-1.29-1.87-1-2.8-.33-2.75.59-1.92 1.14-1.4 1.81-.92 2-.67 2.14-.31 2.52-.19 2.13.16 2.18-.12 2.53.1 2.42-.09 2.43v2.43.79l1.15 2.73 2.35 2.18.83 1v.67l-.47 1h-1.4l-2.41-.11-2.4-.12h-2.41-2.34l-2.34-.15-1.27.09-.52-.43-.39-.8.72-1.11.64-.65 1.76-1.49 1.36-3.27.11-2.25.05-2.25-.15-2.25.1-2.65-.13-2.65.13-2.65v-2.06l-.34-2-.91-3.16-1.49-2-2.22-1-2.26-.38-2.26.38-2 .7-1.54 1.4-1.31 1.68-1 1.89-.77 1.8-.28 1.91-.18 2.76v2.83 2.83l-.08 2.82.12 2.32-.14 2.32.42 1.83.69 1.15 2.05 1.78.89.73.54.86-.46 1.15-1.14.22-2.16-.07-2.34.1-2.33.35-2 .09-2 .06-1 .22-1.78.07-.62-.51-.36-.19.41-1.18.82-1.19 1.26-1.12 1.29-1.27.67-2-.06-2 .11-2.78-.13-2.78.13-2.83v-2.82l.09-2.83v-2.85-2.86l-.11-.93-.11-1.71-.83-2.15-1.25-1.33-1.36-1-.57-.31-.19-.62-.16-.65.5-.54.55-.28 1.51-.26 2.19-.14 2.19-.21 2.2.15 1.13-.08 1.19 1 .18.9-.05 1.85.13.65.36.17.14-.42 1.41-1.14 1.54-1.35 1.64-1.25 1.84-.9 2.75-.53h2.57l2.52.5 2.44.85 1.45 1.28 1.5 1.24 1.5 2.45.68.8h.42l.71-1.09 2.12-2.65 1.92-1.16 2.12-.7 2-.53 2-.14 2.08-.07 2.44.74 2.15.84 2 1.27 1.68 1.64 1.51 1.82 1.41 3.4.21 2.18.18 2.16.12 3-.11 3v2.92zm-48.37 10 .18.32.22.85.42.16.26-.49-.84-.44-.27-.38zm.81 1.84-.29-.05v.36l.2-.06.13-.21zm-1.27-21.51.37.12.05-.38h-.17l-.3.27v.17zm31.17-10.57-.42.3.05.34.28.08.2-.22-.23-.53h.17zm-35.22 31 .73-1.92-.29-.4h-1.14l-.16.27.25.1.19.08.14.34v.53l-.31.44.41.3.19.29-.09.1zm26.17-10.31h.09v-2.61-2.62-2.62l-.18-2.62-.16-1.86-.47-2.21-1.16-1.92-1.35-1.75-1.72-1.37-2.42-1.19-2.59-.56-.73-.08h-.24l-.22.3.21.26.2.39 1.37.26 2.15.58 2 1.07 1.92 1.72 1.46 2.16.74 2.2.23 2.3-.07 2.72v2.72l.15 2.71-.11 2.69.08 2.45-.13 2.45-.1 2.46.22 2.45-.12.93.24.33.25.17.22-.27.12-.33.14-1.32v-2.49-2.48l.06-2.49zm23.55.79h.1v-2.49-2.48-2.49l-.18-2.48-.28-3.28-1.12-3.24-1.35-1.52-1.52-1.3-2.29-1-2.45-.32-.18.2-.2.24.06.31.71.24 1.78.18 2 1.11 1.76 1.44 1.34 1.91.72 2.26.22 2.37.06 2v2 2.3l-.08 2.29v2.3l.15 2.39-.07 2.38.08 2.39-.12 2.38-.08 1.2.31.3.22.3.26-.28.15-.33-.06-1.72.06-2.39.11-2.38v-2.39zm-47.16-4.57h.1v-2.27-2.28-2.28l-.18-2.28.09-2.28.14-.8-.23-.37-.42-.31-.32.25-.07.42.13 2.38v2.32l-.11 2.31v2.65l.11 2.5-.23 2.79v.79l.15 3v3 2.12l.15.77.33.23.28-.2.17-.36v-1.19l-.15-2.75.07-2.75-.08-2.75zm28 17 .3-.27-.62-.86-.18.15.28 1zm-26.64-16.32h.22l-.12-.36h-.37l-.17.08.16.15zm.36-3.77.1-.23-.35-.08-.19.2v.32l.12-.15zm-5-3.13.16.26.16-.23-.14-.2h-.19zm34.93-11-.25.17.4.28.17-.24zm-5.34 34.89v-.21l-.46.09.07.2.25.07zm-24.42-13.74-.25-.19-.13.28.2.25.18-.08zm-4.7 6.67h.2l-.19-.19zm19.61 5.7h.2l-.09-.24-.17.09zm9.57-1.56v-.22l-.21.12.07.19zm.25 1.2.06-.24-.21.14zm-23.78.29.19.09-.1-.25zm1.31.62.17-.24-.2-.06-.11.28zm13.43.06.1.16v-.26z"/><path d="m87.18 60.3-.06 2.78-.12 2.79.08 2.79.1 1 1 2.51 1.82 1.83 1 .75.55 1-.37.83-.62.09-1 .14-1.9-.12h-1.9l-2.45.11-2.45-.09h-2.45l-1.77.12-.92-.46-.47-.59.28-.87.73-.51 1.37-1.32 1.37-1.43.58-1.46.37-1.5-.21-2.43.15-2.43v-2.43l-.16-2.4v-2.42l.15-2.43-.08-2.67-1-2.79-2-2.14-2-1-2.31-.55-2.26.28-1.9.62-1.7 1.1-1.31 1.55-.81 1.79-.76 1.82-.37 2.52-.05 2.07-.09 2.07.2 2.07-.15 2.41.08 2.41v4.07l.85 1.72 1.71 1.7 1.19.94.72 1.18-.52.9-.75.14h-1.9l-1.9-.13-1.77-.31-2-.16h-.66l-2.2-.21h-2.22l-1.45-.46-.74-1 .6-.64.77-.65 1.45-1 .83-.8.62-1.81.21-1.74v-2.79-2.79-2.41l.12-2.4v-2.41l-.06-2-.09-2-.71-2.45-1.06-2-1.77-1.41-2-1.1-2.52-.4-2.78.65-2.34 1.38-1.57 1.94-.9 1.81-.65 1.93v2.79l-.23 2.41v2.41 2.4 2.66l.14 2.67v1.27l.89 1.83 2.17 2.14.82.61.57 1-.65 1h-.75l-1.29.12-2-.32-2-.38-2-.43-2.21-.26-2.34-.23-1.52-.14-.72-.31-.35-1.93.68-.58 1.5-.73 1.07-1.11.8-1.81v-2.66l.1-2 .06-2 .05-2.42v-5l-.11-2.72.11-.38v-2.54-2.55l-.28-2-1.18-1.63-.26-.44-1.63-1.8-1-.94-.13-.86.39-.5 1-.09 2.91.28 2.31.38 2.3.43 1.24.25.84.33.3.85.21 1.09.14 1.77.07.49.18.11.59-.44 2.55-1.88 2-.91 2.14-.48 2.18-.13 2.37.08 2.29.63 2.21.85 1.74 1.29 1.48 1.55 2.12 2.52.35.83h.34l.44-.44 2.29-2.72 3-1.83 2.06-.62 2.09-.49 2.14-.09 3.26.49 2.15.61 2 1.05 1.89 1.23 1.44 1.74 1.3 2.34.48 2.63.2 2.34v2.34l.06 2.11v2.11 2.12zm-1.63-1.42v-.35l.09.28zm-48.83-16.58v.05zm23.61 4.7v-.1l.17.35.38-.13.11-.47.17-.15h-.14v.15zm-20.07 24.92.74.08.21-.09-.1-.16-.22-.12h-.35l-.33.35.1.06zm44.21-.4-.06.24.69.18.09-.27-.35-.48h-.25zm-21.92-24.15.36.1.15-.06-.2-.13-.37.26-.12-.66v-.3l-.29-.12-.25.18.08.9.31.15zm23.53 19h.11v-.23l-.42-.59-.35-.18h-.17l-.16 1.1.36.44.54-.11zm-.9-9.51-.18-.05-.33.17.32.7.3.18.91-.24v-.29l-.63-.23-.43-.34zm-.41 10.85.16-.23.13-.13-.15-.06v.16.23l-.12.51v-.06l-.23.51.18.19.62-.1.77-1v-.6l-.5.13-.69.31zm-1.77-6.15h-.09l-.1 2.21.08 2.23.11 2.2-.07 2.21-.1 1.65.13.64.41.37.4-.34.17-.23v-1l.11-3v-2.28l-.12-2.27.08-2.28v-2.39l-.17-2.34.18-2.34-.13-2.34-.43-3.49-1-2.75-2.09-2-2.67-1.36-2.88-.51-.27-.22-.2.48.16.46.37.11 1.89.17 2 .68 1.59 1.36 1.29 1.75 1 2 .33 3.53v2.28l-.11 2.25.13 2.28zm-22.76-.51.1-2.43-.08-2.44-.09-2.44.08-2.43-.08-2.15-.68-2.24-1.16-2-1.66-1.63-2-1.47-2.33-.88-2.34-.74h-.4l-.38.5.24.42.24.08h1l2.13.81 2.1.89 2.07 1.8 1.37 2.3 1 2.51.2 2.41v2l-.23 3.41.13 2.67-.14 2.53v2.91l.15 3.41.05 2.53v.76l.23.2.32-.25.19-.3v-1.5l.09-2.29-.13-2.31v-2.31zm-23.63-3.7.1-3-.08-3-.08-2.66.07-2.65-.06-.91-.39-.2-.37.19-.07.4-.14.88.14 2.6-.12 2.59v2.45l.12 2.45-.05 2.51v2.21l.17 2.22-.18 2.21.13 2.22v.88l-.07.52.48.19.23-.23.1-.46.27-1.52-.21-2.47.15-2.46v-2.47zm49.58 12.07.1-.32-.13-.1v.46zm1.71 3.93h.21l-.17-.3-.26.08v.1.13zm-2.78-2.84v.17l.24-.06zm-46.48-1.34v-.1z"/><path d="m265.48 40.51-.11 2.15.22 2.16-.14 2.18-.11 2.15.45 2 .54 1.14 1.17.35 2.37-1 .88-.92.6-.46 1.42.89-.14 2.48-1.16 2.2-1.33 1.46-1.65 1.06-1.94.66-2 .44-2-.55-1.64-.9-1.26-1.33-.76-1.46-.34-.11-.09.27-1 .81-1.88 1.67-2.08 1.46-2.34 1-2.12.4-2.12.42-.79-.18-2 .23-2-.14-2-.45-2.59-1.36-1.87-2.23-.67-1.71-.23-1.8-.04-2.49.6-2.45.93-2.19 1.32-2 1.9-1.5 2.52-1.52 2.74-1 2.4-.82 2.43-.68 2.14-.8 2.11-.81 2-1.05 1.18-1.46.58-1.73v-.64l-1-2.64-2.43-1.24-2.53-.28-2.54.33-2.41.91-1.92 1.83-.47 2 .94 1.64.61.47.18 1.09-.5.53-.93.65-3.2.35h-.77l-1.65-.86-1.18-1.41-.67-3.4.66-2.1 1.13-1.89 1.29-1.63 1.74-1.13 1.73-1.14 1.88-.79 2-.43 2-.59 2.71-.35h2.73l3 .51 2.02.22 1.76 1 1.5 1.31 1.19 1.69.77 2.09.15 2.22v2.27l.17 2.33v2.32l.06 2.32zm-26.08-5h.08l-.19-.25.09.06-.18.1zm20.79 3.34h.05l.05-.12zm.74-.27.32.1-.34-.12zm9.14 14.42h-.14zm-32.7-5.59-.32-.09v.19l.06.16.15.3.22.28.09.18v-.24l-.22-.26v-.28l.14-.08zm29.63 7.36-.24.07.08.06.17-.13zm-10.38-1.55-.28-.1-.37.18-.12-.12-.15.2.29-.06.34-.06.36-.15.1.36zm1.75-4.28h.12l-.18.2.2.22-.09-.2zm-20 9.09.35-.11-.13-.14-.13-.07-.19.27zm5.82-1.48-.41-.31.2-.35.18-.58-.45-.09-.09.62v.43l.49.16h.16zm12.68-1 .28-.26-.18-.07h-.11l-.08.26-.24.11.11-1-.07.11-.54-.25.09-.12v.38l.16.72.45.07zm-20.28-.78.07-.57-.12.17h-.14l.08.46zm11.93 2 .13.75-.52 1.15-.36.67-.21-.06-.4-.09h-.39l-.29.73-.25-.35h-.09v.09l.27.21h.9l.64.22h.22l.16-.21.41-.35.43-.5v.07l.08.25.22.23h.42l.61-.77.1-.47.34-.57.14-.06.3 1-.11-.06.61-.4h.48l-.12-.09h.12l.6-.39.88.23.14-.12-.14-.55v-.42.08h.18l-.28-.14h-.5l-.54.15-.09-.16.13.06.25 1.13-.85-1-.22-.47.33-.34h.23l-.2-.15h-.52l-.32.37-.31-.31-.09.07v.06l.43.18-.57.52h-.87l-.16-.05-1 .78h.1l-.21.11-.32-.77-.26-.44h-.18-.19v.23zm-8.89 1.31-.67.07.14.31v.07l.65-.45zm19-33.47-.32.43.29.14h.27l.14-.31-.46-.35h.55l-.08-.21zm.25 2h.09l-.14-.38.15-.09-.45-.42-.08.46zm-22.53 24.07h.09l-.3-.14.27-.54.27-.18.33-1.26-.11-.24-.5.08-.26.3.12.69.39.33h-.4l-.18.51.2.37zm9.89 6.59h-.08l.4-.54-.08-.41-.76.06h-.13l.13.1zm-9.1 0-.21.32.28.15.19-.11-.15-.36-.22-.75v-.4h-.25l-.34.18-.13.7zm20.24-29.64.43.48.06-.21.08-.15-.53-.21-.26-.12h-.38l-.35.66v.3l.34.48.44-.46.09-.6zm-2.78 27.11.31.09.2-.06.47-.06-.22-1.08-.53-.09-.27-.07-.14.71zm17-2.28-.79-.42-.14.34v.39l-.25.51-.35.4-.49-.24h-.2v.76l.76.7.81-.46-.16-.1.48-.87.3-.8zm-13.45-9.46.1-1.39-.56-.23-1.17.48-1.86.78-1.82.9-2 .51-3.33 1.2-2.47 1.19-1.64 1.43-.75 2.06-.12 1.76 1.09 1.93 1.26 1 2.53.67 2.39-.1 2.71-.7 2.14-1.78 1.8-2 1-2.54.44-2.55zm3.64-10.06-.42-2.75-1.43-2.37-.06-.27-.2-.25-.37.19-.23.4.37.38.87 1.69.5 2.23v2l-1.46 2.3-1.52 1.37-2.38 1.14-2.18.82-2.2.72-2.23.64-1.85.82-1.91.46-3.09 1.37-2.63 2.17-1.19 2.18-.43 2.82.67 2.76 1.09 2.34 2 1.65 2.12.64 2.17.14.38.05.13-.42-.19-.49-2-.14-2.18-.6-1.78-1.42-1.07-2-.4-2.26.25-2.27 1.69-2.83 1.48-1.17 1.89-.98 2-.8 2.29-.94 2.37-.68 2.69-.93 2.65-1 2.1-1.15 1.95-1.37 1.35-2.21zm-.06 13.32h.11l-.21-2.33.13-2.34.05-1-.48-.26-.49.31.11.89v1.9l-.14 1.89v2.47l-.12 2.46.28 1.87.39 1.83 1 1.84 1 .8 2.75.27.22-.39v-.53h-.27l-.75.18-1.78-.4-1.1-1.43-.8-2.39.08-1.77v-1.9zm-16.45 13.39-.15-.1.05.25v.39l.3.14-.08-.22zm-2.22-26.82v-.25l-.13.15-.24.07-.07.32.26-.17zm.81 27 .21.23v-.3-.17zm24.52-5 .06-.18-.13.15h-.26l-.11.31.26-.19zm-28.74-4.83h-.2l.2.13h.24zm24.12-1.61.21-.48-.11.12-.23.36zm-9.28 7.27-.32-.11.28.16v.07zm-11.26-21.14v-.3l-.12.17v.2zm21.28 15-.07-.24-.1.2v.14zm-28.37 2.13-.17-.08.14.12.09.05zm2.12-16.41-.17.1h.12zm21.18-9.94-.17.08h.18.11zm-2.87 27-.18.08h.18.11zm1.25-2.55h.2-.19l-.07-.07zm-16.91 1.26-.2.08h.21.11zm6.09 6.51v-.21l-.06.19-.07.09zm10-31.33-.14-.1.1.12.05.09zm-4.22 29 .06-.17v.13zm-14.51-20.74-.16.1.1-.08zm19.2 16v.21-.16z"/><path d="m123 58.17-.18 2.12.12 2.13-.17 2.12v2.12l.42 2 .64 1.17.53.34 2.82-.79.28-.58.59-.69.63-.47 1.52.81-.11.89-.4 2.37-1.27 2-2 1.68-2.31 1.2-2.43.2-1.68-.33-1.77-1-1.23-1.59-.57-1.26h-.53l-1.5 1.19-1.79 1.37-1.88 1.32-2.22.56-3.08.73h-1.78l-2.65-.21-2.55-.67-1.93-.64-1.61-1.26-1.34-1.52-1.13-2.14-.56-3.26.29-2 .43-1.91.85-1.86 1.09-1.77 1.67-1.22 2.28-1.32 2.51-.89 1.45-.45 2.22-.35 2.16-.56 2.15-.63 2.4-.81 1.46-.75 1.58-1.56.5-1-.1-1.77-.5-1.49-2.12-1.81-2.66-.66h-2.21l-2.18.4-2.79 1.9-.63 2.74.7 1.09.54.33.38.51.11.88-.58.46-.54.56-3 .32-.85-.27-2.7-1.26-1.12-2.39-.32-2.26.65-2.28 1.31-1.81 1.6-1.53 2.53-1.42 2.67-1.18 2.75-.51 2.79-.16 2.09.05 2.08.18 2.35.1 2.2.81 2.38 1.27 1.84 2 1.1 3.2.08 1.9.22 1.89-.15 2.28v2.28l.12 2.29v.5zm-24.28 2.53-.07-.06-.12-.26.13-.18.49-1.33v.1l-.55 1.21-.58-.49h-.23l.08.22.09.13.68.18zm18.18 8.71-.08-.1h-.06v.09zm-1.73.2.16-.3.12-.19v-.23l-.17.15.09.3h-.12v.19h.1zm-3.6-25.5.08.09zm1 .26v.09zm-11.15-2.56v.09zm13.58 5.35.2.11.09-.05h-.24l.05.07zm-20.17 22.2-.33-.1v.07h.15zm25.63-4.42.42.37-.1.17-.27.29.16.47.22-.06 1-.91h.07l-.08-.41v-.26l-.07-.09-.34.13.09-.14-.61.69-.59-.12v-.65l.55-.09.67-.87.52-.23.13-.4.15-.61v-.51-.16-.43l-.39-.51-.12-.33.28-.33h.23l-.28-.08-.32-.37.32-.29.34-.44-.12-.66v-.7l-.32-.41-.4-1.08.29-.37.44-.19v-.26l-.41-.13v.24.46l-.21.32-.28-.28-.29-.1-1.14-.22-.25.19-.07.62.2.14.46-.17.43-.07.37.31.36.18-.21.45h-.13l-.64 1v.71l.14.57.1.5-.27.94-.11.15-.18.85h-.11l.38 1.09-.21.31.26.66-.14.67zm-19.7-6.53h.07l.15.09.1.05zm-2.07-12.85-.58.11-.92-.3-.23.1.14.14h1.05l.52.33v.78l.14.58-.2.13v.32l.6.42-.18.13v.08l.12-.2.56.07v.34.16l.16-.09-.09-.43v-.25h-.12l.31-.63-.71-1.35h-.74l.14-.54zm21.45 11.24.24.21v-.16l-.12-.14-.11.16-.25.11h-.06l.08.06zm-17.47.43.18.25.1-.12h.18l-.28-.14-.27.25zm8.21-14.7-.46.24.17.19.19.19.17-.27-.28-.48.4-.28.2.34.15.34h.22l.11-.14v-.1l.43-.64h.13l-1.22.36zm-5.92 0h.17l-.08-.21-.29-.19-.18.24.2.13zm-1.73-1.26.59.13v-.15l-.12-.25-.53.37v.16l-.14-.1zm1.59 16.31.15-.27-.33.08-.17.46h.32zm-3.55-10.78-.14.5h.29l.14-.26-.34-.31zm-.56 2.82-.55-.15-.44.55-.07.14-.23-.16-.37.18-.22.13v.53h.48l.17-.59.23-.06.8-.74.22-.12h.19-.13l-.09.05zm-.4-6.52.21.15.33-.25.16-.75-.23-.23-.08.19-.24 1-.35-.2-.31.27.18.18.12.14.11-.12zm17 24.3-.49-.78-.13.07h-.2l.51 1.21.24-.16v-.49l.32.06-.05-.18zm-8.79 6.65-.21-.25-.78.37-.44.38-.47.14-.16-.36.16-.66-.12-.23h-.13l-.55.25-.35.58-.55.71-.06-.07.46.7.08.15.74-.73.2-.8.37.37-.22.32.11.32h.44l.73.56-.15.21-.17-.16h.27l.3-.58.85-.31.08.12.1.27-.19.14v.26l.59.16.4-.22v-.49l-.27-.19.62-.15.36-.3.21-1.23.1-.14-.34-.19h.19-.07l-.75.18h-.1l.15.09v.27h.06v.36l-.27.28h-1.06m6.76-13.85.18-1.44-.77-.35-.86.25-2.55 1.21-1.88.76-2 .43-1.92.39-1.88.55-1.73 1-1.28 1.31-.64 2 .06 2.1-.07.28 1.75 2 2.77 1.07 3 .09 3.12-1.27 1.78-1.46 1.37-1.86 1.22-3.39.31-1.78zm-12.28 14.99.61.13.07-.16.38-.21-.29-.5-.64.08-1.89-.31-1.9-.79-1.5-1.37-1.09-1.76-.4-2.14v-1.65l.62-2.36 1.67-1.71 2.54-1.66 2.31-.88 2.37-.69 2.72-1 2.76-.92 2.19-.81 2.09-1 2.09-1.42 1.67-2.5v-2.89l-.54-2.19-1-2-.52-.24-.51-.2v.46l.13.5.92 2.08.39 1.83.29 1.96-.7 1.59-.76.86-2.39 1.67-2.22 1.09-2.37.73-2.58.85-2.61.75-2.28 1-2.34.81-1.6 1-1.47 1.19-1.38 2.46-.41 1.21v2.16l.86 3.16 2.2 2.58 2.14 1zm16.33-12.6h.14l-.18-1.64.13-3.41-.12-.38h-.43l-.29.17-.15.86v2.25l.13 2.25v2.24 2.25l.18 2.37 1.1 2.88 2.11 1h1.74l.36-.12-.06-.3-.15-.14-.32-.1h-.76l-2.7-1.78-.45-1.57-.34-3.27zm-5.69-17.37-.16-.39-.29.36.23.43zm.1-1.59-.41-.17-.12.17.09.26h.76v-.3zm-13.42 3.29.1-.27h-.25l-.24.09v.2l.26.08zm20-.23v.36h.22l.14-.2-.24-.29zm-14.19 29h-.28l.26.36h.27l-.12-.43zm-8.42-29.42.12-.19-.2.07-.13.24zm2-1.93-.08.26.18-.1.07-.26h-.21zm20.06 9-.07-.09.12.18h.17zm-19.42-4.77-.11-.14v.19l.12.14zm20.44 20.42h-.08l.13-.12zm-26.95-4.61v-.16.16l.1.15zm26.69-18.51.1-.11-.07.13-.07.16zm.68 8.09h-.16.12l.24-.06zm-1.24 6.06v.13-.13l-.13-.15zm-3.28-8.68.15.08-.16-.06h-.17zm-23.62 18.74v.12-.11l-.08-.14zm28.5-17.07h.16-.13l-.15.18zm-11.11-8.93.06-.11v.2zm9 .45h-.11.2zm-6.83-2.3-.11-.06h.21zm-8-1.28-.08.05.15-.15z"/><path d="m215.14 126h-.74l-2.21-.06-2.13-.62-2.43-.91-2.31-1.27-1.88-1.94-1.32-2.4-1-2.4-.63-2.55-.29-2.63.26-2.63.17-2.42.23-2.43.6-2.35.89-2.25.95-2.21 1.27-2.24 1.54-2 1.72-1.87 1.88-1.25 1.84-1.27 1.88-1.3 2.06-.85 2.15-.56 2.24-.49 2.28-.14 2.43.36 2.32.79 2.2 1.14 2.57 2.57 1.47 2.2 1 2.51.2 2.21.21 2.18.2 2.2-.15 1.09-1 1-1.64.66-3 .35-2.9.75-2 .31-2.09.2-2 .55-2.36.24-2.3.58-2.33.41-3.15.38-.7.35-.56.53v3.53l.83 2.64 1.26 2.4 1.94 1.85 3.31 1.32h2.2l2.18-.31 1.82-.53 1.78-.65 2.8-1.82 1.34-2.85.13-1.19-.73-1.49-.52-.15-.18-.88.54-.79.51-.41 2.38-.88 2.49.3 1.63 1 .6 1.9-.47 3.64-.67 2-1.36 1.53-1.31 1.66-1.7 1.2-2.3 1.4-2.44 1.06-2.45 1.1-2.61.57-2.21.35zm5.48-35.08-2.18.26-2.06.77-2.31 1.29-1.85 2-1.11 2.07-.93 2.15-.79 2.22.05.28.26.26h.24l2.16-.13 3.35-.69 2.6-.64 2.62-.45 2.26-.31 2.25-.42 1.35-.32.32-.39-.23-2-.39-2.06-1.35-2-2-1.13zm-17.28 17.78.12 2.39.45 2.35.5 2.11.94 1.93 1.29 1.67 1.53 1.72 1.76 1.46 2.1.84 2.2.41h2.39 2.38l2.63-.69 2.51-1 2.48-1.11.47-.19v-.46l-.34-.15-.82.32-2.06 1-2.2.49-2.16.57-2.05.54-2.12.07-2.1-.32-1.85-.5-1.72-.89-1.54-1.41-1.13-1.75-1.29-2.26-.8-2.51-.53-2.59-.12-3.19.62-3.11.58-2.61.54-2.63 1.07-2.46.34-.27-.31-.47h-.51l-.07.43-.74 1.57-1.1 2.59-.54 2.77-.59 2.66zm27.95-9.19-.22-2.42-.69-2.31-.83-2-1.35-1.69-1.71-1.24-2-1.2-2.12-1-2.27-.44-.49.1-.2.28.13.52 1.37.23 2.36.49 2.18 1.13 2 1.75 1.6 2.14 1 2.54.39 2.94.1.8-.1.36.42.16.2-.35z"/><path d="m158.71 112.79-.18 2.31.18 2.3v2.31 2.3l-.18 2.31.23 2.15.07 1.25.83 1.48 2.17 1.7.76.67.44.45-.54 1.56-1.12.26-2.84.26-2.81.49-2.4.21-1 .06-.6-.74-.15-.86v-2.79l-.25-.07-.1-.08-.2.34-2.41 2.42-1.61 1.31-1.84 1-1.9.91-1.88.32-2.06.31h-2.09l-1.61-.29-2.14-.55-2-1-2.09-1.94-1.39-2.42-.7-2.23v-2.35l-.24-2.66.19-2.66-.15-2.41.14-2.4-.06-2.41.11-2.41v-2.4l-.22-1-1.39-2.73-2-1.36-.51-.59-.48-1.21.33-.67 1.12-.13 2.39-.28 2-.31h2l1.75-.36 1.16.14.79.91.11.73.09 1.13.08 2.56-.14 2.55.17 2.55-.09 2.55v2.55l.13 2.55-.15 2.56.17 2.78.16 2.27.5 1.69 1.62 2 2.54 1 2.68.18 2.87-.57 2.47-1.57 1.35-1.35 1-1.63 1.21-2.74.5-2.81v-5.1l.15-2.25-.07-2.25-.06-2.25v-2.66-1.4l-.83-1.3-2-1.37-1-.63-.61-1.26.44-.89 1.47-.45 3-.32 2.5-.4h2 1.23l.9.73.07 1.4-.09 3.42v2.41 2.38l-.09 2.41-.06 2.4zm-2.12-13.7.33.17v-.24h.06v.06h-.12l-.36.2zm-22.54 30.91.11.07zm23.37-3.28-.22-.13v-.08l-.1.22zm-.3 6.59.34.15.4-.42h.27l.19-.19-.36-.27-.44.83h-.47l-.11-.37-.07-.1-.22-.06-.17.46.07.07h.08zm-27.12-17.18h-.17l.18 2.6v2.59 2.41l-.18 2.41.48 2.36.57 1.78 1.14 1.49 1.42 1.1 1.63.81 3.27.32 3.49-.51.42-.2.21-.31-.34-.23-.25-.1-1 .25-2 .12h-2l-3.33-1.02-.86-.75-1.15-1.43-.43-1.82-.32-2.52.05-3v-3-2.23l-.08-2.23.15-2.23v-2.23l-.07-2.23.1-2.91-.14-.63-.3-.17-.28.13-.2.3v1l-.17 2.51.23 2.5-.2 2.5zm24.87-.51h.17l-.18-2v-2-2.15l.18-2.15-.23-2.16.07-2.15-.12-.74-.25-.22-.42.19v.38.76 1.89l-.14 1.9.09 2.31-.08 2.31.11 2.31-.11 2.3.07 2.28v2.32 2.27l.12 2.28-.11 2.53.27.55.27.16.26-.2.13-.36-.06-1.39.14-2.26-.05-2.25-.07-2.25.11-2.25zm-2.17 14.06-.33-.09-.06.26.13.11h.47l.23-.05h-.2zm4.68-.19v-.6l-.17.09v.06l.1.41v.21zm-.4-27.24v-.2l-.3.09v.08h.24zm.64 4.57-.18-.09.13.16.11.17h.11l.12-.21zm-5.55 23.79.12-.14-.13.16z"/><path d="m227.7 46.38-.14 1.46.14 1.16v2.47l-.14 2.47.26 2.52.64 1.74 1.85 1.54 1.24.66.5 1.27-.28.69-.51.09-1.19.49-2.33.21-2.31.36-2.33.25-2.34.19-3.51.45-1-.07-.36-.64.26-.92 1-1 1.51-1.35 1.12-1.89.67-2.11-.25-1.9v-1.9l.05-2.71.2-2.7-.12-2.7-.12-3.55-.21-2.78-.51-1.82-1.49-1.26-1.89-1.1-2.17-.41-2.34.41-2.29.69-1.9 1.43-1.52 1.8-1.43 2.3-.77 2.62-.42 2.57v2.6 2.23 2.24 2.24l-.1 3.55.09 1.39 1.1 2 1.76 1.47 1 .52.44.86-.53 1.14-1.7.42-2.74.54-2.78.21-2.87.53-2.92.13-1.89.27-.33-.75.32-1.15.87-.73 1-.94.9-1.07 1-1.63.15-1.87.2-2.2v-2.2l-.16-2.21.16-2.43v-2.44-2.43l-.18-2.43.17-2.43-.17-2.92.06-1.16-1.12-1.76-1.9-1.44-.78-.45-.54-1.11.31-1.06 1.13-.27 1.88-.31 1.88-.25 3.15-.31 2-.17 1.13 1 .12 2.16v1h.28l.36-.17 1.4-1.62 1.93-1.58 2.06-1.42 2.29-1 2-.48 2-.4 2 .11 2.59.26 2.41 1 1.72 1.15 1.36 1.56 1 1.78.39 1.8.3 1.8.17 1.89-.12 1.89.07 1.53.11 2.24zm-10-17.87.25.17.28.37h.16l.26-.19-.2-.07-.44-.21h-.26l-.1.1zm-14.4 6.84-.14.18.26.26.23.14h.19l-.14-.17-.46-.31v-.24l.11-.1zm-5.89-1.78.11.14zm22.63.51v-.08l.05-.14zm6.8 23.08-.55.05-.51-.07-.07-.16.53-.37-.15-.21-.87.23-.22.44.34.43h-.08l.09.3-.35.2h.36v.16l-.21-.05.14-.32.9.9v.26l-.63.46-1 .19-.17.23-.48 1.28.08.18.18-.17.64-.58.2-.29.66.33h.14l.75-.33.24-.12 1.23-1.29-.15-.28-.29-.24h-.18l-.09.11h-.24l-.07-.76.13-.6zm-2 1.48h-.25v.08l.07-.24.14.07zm-3.75 1.5v-.06l.19.53-.23.08.14-.11zm4.91-22.24.32.13v-.21l-.15-.07v.29l-.35.17-.33-.09-.13.14v.18l.38-.24zm-.55 9.91-.35.34.15.1v.08h.23l-.25-.42.09-.26.23-1.21-.18-.16-.37-.28-.14.14.1 1.33.07.09-.18.06.12.06zm1.08-7.13-1-.14v.27l.15.11.06.15.16.31.09 1.47-.23-.25-.21.07-.18.13.22.45.36.12v-.56h.23l.23-.17.1-.49v-.64l-.41-.47h.35l.3-.29-.2-.25zm-20.23-7.62.18.29.78-.29.09-.24-.24-.31-.3.22-.53.43zm20.28 16.23v.16l-.08-.51-.3-.57h-.3l.13.23-.06.12-.24.56-.47.72-.5.08-.19.22h.26l.39-.29.24-.2.71-.33zm-4.87-20.29v-.19l-.29.57v.11l.09.18.18-.12.09.24-.05.18-.13.22h-.16v.2l.17.24.79-.86.59.25v-.08h.06l-.56-.15v-.21h.09l-.28-.25zm6.29 32.78.29-.46-.22-.86v-.11l-.52-.21-.15.35-.14.19.07.13.14.59.15.3.61.14zm-24.79-24.38-.4-.71h-.27l.07-.14.12.14-.19.58v-.09l-.41-.31-.24-.11h-.27l.06 1.25.87.24-.05-.27.82.23-.17.14.1-.18.5.14.05-.05.09-.46v-.17.1l-.45-.48-.06-.22h-.07zm20.71 10.69h.19l-.19-2.09v-2.16l.15-2.12-.13-2.12.08-2.28-.66-2.83-1-1.47-1.27-1.3-1.67-.72-3.08-.73-1.89.29-1.88.18-.7.29-.28.36.47.41.62-.17 3.51-.32 3.4.81.7.28 1.79 1.82.79 2.43.35 3-.22 2.52.25 2.28v1.83 1.83l-.16.63.08 1.84.08 1.83v2.15l-.25 2.16.18 2.15.11.72.3.22.26-.25.28-.32-.12-1-.09-2.53.16-2.53v-2.53zm-24.12.8h.2l-.19-2.34v-2.34l.15-2.49-.13-2.49.13-2.48v-.64l-.2-.34-.34-.28-.23.25-.29.45.2 1.14-.1 2.49.09 2.49-.09 2.49-.13 2.55.13 2.55v2.56l-.13 2.54.08 2.55v4.07l.38.5.46.18v-.42l.06-.6v-2l.19-2-.12-2.12-.11-2.12v-4.15zm29.55 11.38-.18.25.22.08h.14l.12-.68-.27.11zm-24.1-25.2v-.3l-.2.16-.37.67v.09l.11-.11.68-.43zm-3.31.93v.2l.35-.22.2-.08h.16-.11l-.66-.31-.28.41.25.06zm21.57-4.42-.09-.31-.12.17v.07l.17.28zm2.61 15.13.12-.27-.25.06-.06.15-.14.07.24.12zm-.57-2.39.09-.26-.14.12.07.14v.12zm-4.7-14 .2-.32h-.18l-.18.21.15.22zm4.67 3.13-.2.05.17-.05zm-1.6-.18v-.23l-.06.22zm3.08 13.61.13.11-.18-.05h.06zm-8.3-13.14.12-.11v.17-.08zm-11.27.26h.14l-.16.13zm10-4.74v.12l-.09-.24zm-20.03 35.74h.09l-.19.18zm24.79-10.49v.09l-.19-.18zm-.67-13h-.09l.18-.19zm-23-6.47h-.11.25z"/><path d="m336.2 22.14h2.68l2.68.32 2.5 1 2.41 1.15 2.17 1.29 2 1.59 2.12 2.54 1.13 2 .71 1.94.84 1.9.39 2 .37 1.94-.06 2-.14 2.67-.29 2.64-.82 2.72-1 2.67-1.57 2-1.77 1.74-1.93 1.58-2.29 1-2.26.65-2.31.51-2.37.18-2.14-.29-2.16-.08-2.11-.45-2.45-1-2.42-1-2.11-1.63-2-1.72-1.42-1.54-1-1.81-1.17-2.32-.6-2.53-.65-2.59v-.88l-.1-2.8.37-2.76.56-2.15.59-2.12.92-2.05 1.24-1.86 1.37-1.78 1.67-1.48 1.87-1.17 1.93-1.16 2.05-.38 2-.61 2.08-.12zm-.11 35.13h-.15.18l-.16.21-1.07.06-.7-.28.11-.09-.14.21-.47-.38h-.29l.09.25.57 1 .54.15 1.22-.45.23-.32zm12.42-29.94h.13l-.15-.32.06.07zm-3.85.46-.09.08v-.1zm8 9.65.08.09h-.08zm-6.3 19.43.08-.08v.09zm1.64-30.87-.37.08v.21-.15l.23-.08zm1.32 19.05.08.57.17.75-.14.06.26.07-.05-.14.14.57-.49.22v.28.19l.23-.27.09-.5.56-.2.24-.37-1-.72v-.46zm-3.58-16.22h-.13.16l-.18.18h.24zm1.84 4.2.33.17.53.06h.29l-.24-.27-.58.19-.37-.23-.24-.53.35-.43v-.28l-.54.45v.07l.44.1zm-18.25-3.44v.09l-.14-.06.3.11.11-.13-.09-.16.06.14zm2.04-1.59v-.1l-.26-.54-.23-.14.06.71zm21.95 21.46v-.11l-.21-.22.49-.34.28-.76.07-.53-.45-.5h-.87l-.17.3.17.62h.1l-.27 1.21-.25.28-.17.35.24.28h.4zm-5.32-20.86v-.16l-.18-.11-.28-.08.1.44.26-.07-.52.34h-.5l-.06-.15h-.11l.26.08-.49.39.19.23.07.16.15.1-.06.26-.25.1.1.26.19.2.7-.39.11-.42.54.36 1.2.28.21-.12 1-.92.13-.08-.16.08-2.94.6v-.35l-.06-.08.06-.17.26-.23zm.35 12.73-.17-1.83-.39-1.79-.34-2.32-.89-2.18-1.22-1.74-1.54-1.42-1.72-1.19-2.73-1.09-2.94-.48-.37.2-2.34.51-2 1.26-1.81 1.58-1.24 2-.77 2.21-.6 2.47v2.53l-.28 1.83.12 1.84.66 2.51.86 2.44 1.3 2.11 1.86 1.61 2.2 1.15 2.31.87.77-.06h2.37l2.35-.47 2-1.35 1.45-1.23 1.1-1.55 1.06-2.7.71-2.82zm-26-1.65.15 2.06.41 2 .44 2.88 1.06 2.73 1.41 2.16 1.75 1.88 1.95 1.65 2.28 1.33.59.27.27-.32v-.4l-.69-.28-1.76-1.18-1.63-1.32-1.58-1.47-1.32-2.05-1.2-2.14-.53-2.4-.43-2.87-.28-2.89.23-2.21.53-2.11.68-2.31 1.13-2.14 1.6-1.69 1.6-1.69 2-1.25.84-.29v-.46l-.44-.33-.59.24-2.2 1.48-1.83 1.44-1.44 1.84-1.35 1.94-.65 2.22-.72 2.77zm30.1 2.85-.18-2.15-.45-2.1-.27-2.14-.86-2.66-.55-.73h-.43l-.16.31.2.73.4 1.47.79 2.27.33 2.39.27 2.31-.27 2.31-.42 2.28-.67 2.43-1.18 2.31-1.25 2.22-1.1 1.06-.39.53.21.38.42.15.41-.3 1.36-1.83 1.16-2 1.18-2 .44-1.8.4-1.77.42-1.86zm-7.95-15.92-.26.06-.68.72-.19.18.22.22.29-.11.57-.64zm-1.38-.05.26-.24-.17-.15-.08-.39-.48.06.09.37zm10.79 14.77.72-.29-.09-.13v-.25l-.77.28v.19zm-7.57-10.81-.17-.45-.07.05h-.26v.79l.16.09.06-.14zm2.6 1.06-.37-.25-.1.15-.2.09.36.29zm.61 5-.2-.08-.06.24-.09.2zm-1.55-2.28.2-.34-.22.12-.17-.09zm-2-8.72-.18.11.1.1.09.17zm-9.94 33.42-.23-.21.06.13v.2zm5.46-35 .15-.18v.05zm11 26.58-.14-.15-.09.12-.14.13zm-22-23.17-.09.2zm13.39-1.64.08-.2z"/><path d="m271.11 95.18v2.36l-.1 2.37v2.37l.26 2.36-.07 2.36-.2 2.36.28.8.71 2.38 2.27 1.71.91.74.41.86-.82 1.12-2.12.39-2 .19-2 .11-3 .32-.93-.15-.59-.49v-1.07l-.09-2.55v-.43h-.23l-.47.22-1.26 1.49-1.43 1.22-1.64 1.48-1.88 1.12-2 .76-3.09.6-2.51.1-2.52-.28-2.74-1-2.2-2-1.83-3-.35-2.25-.29-2.24-.05-2.9v-2.9l.1-2.9.07-2.48-.16-2.48-.08-2.48v-2.47l.06-.54-1.05-2.78-1.8-1.25-1-.59-.51-1.09.44-1.07 1.42-.57 2.15-.16 2.12-.41 1.8-.39 1.81-.28 1.17.07.72.76.2.79-.14 1.88.16 2.08-.17 2.08.25.53v1.86 1.74l-.12 3.08.2 1.85-.13.41v3.35.66l-.09 2.62.16 2.61.39 1.85 1.07 1.66 1.38 1.38 2.07.71 2.14.08 2.11-.38 1.65-.68 1.88-1 1.43-1.63 1.17-2.2 1.06-2.29.6-3 .06-3-.09-1.34v-3.51-2.94l.14-2.55-.18-2.54-.45-1.89-.63-.65-1.92-1.71-1-.79-.36-1.4.46-.38 1.44-.57 3.42-.16 3.4-.35 1.37-.26.5.14.77.91.18.93.06 2.14-.24 2.49.2 2.49v2.5l-.16 2.49.13 2.49zm-29.59 16.64-.15-.08zm16 4.55h-.1zm11.88-17.13.21-.13-.15-.1-.12.13v.21l.14.1-.13.47h.41l.3.11-.17-.27-.52-.23zm-26.1-15.24v.3l-.2.22.18.32.59-.29.33-.17.28.23h.18l-.19.26 1.18 1-1-.15h-.19l-.35.16.14.28.67.67.52.42h.51l.23-.3-.11-.66.15-.8-.27-.27-.19-.58-.45-.08.12-.1-.63-.46-.45-.45v.13l-.74.27h-.22v-.6l-.23-.12-.08.18zm1.27 4.55.06.07.06-.25-.25-.12v-.23l-.12-.12.08.36zm27.43 26.24-.24.29.23.42.28-.31.17.26h.2l-.26.07-.06-.21zm-2-21.73-.31-.15-.21.12.18.14.48-.17.17.87-.05.24v-.11l.32-.58-.13.06zm-.27-11.24v-.28l.07-.49.27.15v-.22-.21l-.13-.14-.23.51-.48-1-.17.17h-.06l.21 1v.29l.34.18.08.9.19.24.12-.22zm0 16.36.55-.41v-.18l-.2-.08-.27.77h-.44l-.23.08.26.07.2.19zm.26 4.27v.24l.17.36h.28l-.15-.15-.35-.41.31-.5-.24-.31-.15-.65-.25.18-.07.19h-.09l-.39-.61-.13-.16h-.18v.19h.14l-.33 1 .27.32.34.4h.49zm-1-11-.25.53.71.4.69-.55.13-1.14v-.69l.08-.21-.19.22-.93.66-.19.82zm-25.34-5.33-.72.79-.14 1.33v2.41l.28 2.41-.06 2.4-.2 2.52.26 2.51-.26 2.52.19 2.51v2.52l.24 3.18.54 2.2 1.33 1.8 3 1.75 2.75.46 2-.06 2-.37.37-.4.21-.29-.36-.34-.39-.09-2.29.56-2.35-.14-3.37-1-1-1-1.17-1.63-.51-2-.1-2.8v-3.34-1.74-2.54l-.2-3.25.08-2.27-.15-2.4.21-2.41-.09-2.54-.24-1.3.08-.08zm23.31 11.5-.1 2.95v2.41l.27 2.41-.06 2.4-.19 2.41.29 1.06v.56h.34l.25-.12.1-.37.19-.65-.05-3v-3l.06-3.74v-2.41-2.44l-.2-1.2.1-1.07v-.82l.12-2.81-.23-2.81.15-2.81-.13-.66v-.32l-.42-.08-.29.21-.23.5-.05 1.47v2.41l.05 2.38.07 2.38-.07 2.38zm-1.74 1.16-.09-.23h-.29l-.14.33.35.06zm-7.29 16.91-.05-.12h-.25l.07.33zm-.22-.94h.1l.14-.12-.24-.12zm-1.36.5h-.1v.19z"/><path d="m166.18 126.23v-2.59-2.59l.15-1.67.15-.59 1.11-.86.5.43.65 1.12.58 1.92 1 1.72 1.81 1.69 2.06 1.31 2.34.71 2.39.34 2.39-.29 2.35-.54 2.13-1 1.75-1.58 2-2.83.12-2.36-1.55-1.92-2.12-.8-3.28-.33-2.66.16h-2.48l-2.46-.3-2.4-.54-2.35-.76-2.26-1.65-1.36-1.87-.54-2.68.12-2.68.83-2.55 1.38-2.27 1.47-1.95 1.76-1.61 2.06-1.2 2.18-1.25 2.39-.56 2.39-.48 2.39-.34 2.41.13 1.46.48 1.38.2 1.48-.54.73-.52 1.1-1.07 1-.37 1 .68.18 1 .12 2.12-.25 2.11.18 2.12v3.23l-.11 1.17-.19.6-1.26.76-.6-.3-1-1.63-2.09-2.76-2-1-2.12-.53-2.59-.13-2.56.33-2.27.85-1.93 1.49-.88 1.71v2.93l.9.87 1.76.68 2.77.19 2.91.26h1.39l2.4.08 1.83.19 1.81.28 2 .26 1.72 1 1.45 1.78 1.22 2 .14 2.21.17 2.19-.32 2-.57 1.93-1.22 2.12-1.37 2-2 2-2.35 1.54-2.49 1.25-2.44.86-2.5.73-2.59.15h-2.59l-3.49-.62h-1.16l-1.69.3-1.16 1-1 .61-.75.37-.79-.55-.05-.9v-2.06-3.63-.9zm5.63-13.52h.24.09l.07-.19h-.37l.07.36h-.11zm23 8.4v-.11h.07l-.15.23.31.19-.14-.16zm-27.1-10.47.23-.07v-.13h-.19v.15zm23.29-10.24v-.25h-.05l.06.23.13.36.24-.14.06-.16zm-21.7 22.81-.24.08-.32.68.3.29.24-.23-.13-.89.17-.08h.14zm20.45-23.06v-.11h.08l.18.92.49.09v-.33l-.06-.28zm-22.46 23-.29.85.08.58.14.24.25-.12-.07-.44.64-.67v-.34l.07-.33.3.11.14-.13.38-.49-.38-.47-.37-.07-.45.09h-.39l-.16.26.24.52zm7-9.78v-.54l-.1-.19-.7.42.32.39.57-.19.3.82h.2 1.13l.25-.14-.09-.29-.35.12-.15-.2.06-.5v-.25h-.2l-.39.38-.34-.24zm16-1.41 1.23.47.32-.29.31-.94.07-.29-.25-.06-.14-.06v.19h-.41l-.82-.31h-.52l-.22.18.07.19.7.76h.11l-.5.23-.51-.24-.33-.23-.2-.23-.11.43.39.68.22.17zm4.79 2.58.07.14-.09-.07.48-.22.15-.59-.46-.14-.64-.11h-.08l.36-.42v-.13l-.59-.16-.19-1-.26-.1-.46.19-.16.05.06-.21.12-.21-.09-.2-.12-.29-.73.75v.41l.15.52.21.12 1.21-.1.38.1-1.1.58-.57.11h.06l.47.82.07-.12.83.64.44-.07zm-17 15.41 1.39.1 2-.13 2.09-.23 2-.63 1.72-1.12 1.7-1.1 1.32-1.56 1.8-2.28 1.14-2.6.14-1-.24-.5-.48.25-.21.33-.64 1.89-.95 1.75-1.17 1.72-1.4 1.57-1.85 1-1.88.88-2 .67-2 .14h-2-2l-2.44-.39-2.38-.73-.94-.36-.36.37v.37l.71.24 2.28.74 2.36.41zm.38-18.67-3.15-.29-2.39-.85-1.43-1.23-.91-1.64-.35-.44.1-2.2.47-2.16 1.63-2 2.41-1.83.94-.67.31-.21v-.45l-.31-.26-.6.25-2.18 1.33-1.84 1.88-1 2-.8 2.1.07 2.26.28.47.81 1.94 1.48 1.42 1.31.49 3 .74 1 .19h3l.09-.12.21-.3-.24-.21-.3-.19zm-.91-1.63.26-.43.13-.14-.08-.28-.33-.1-1.19.11-.69-.24v.24l-.11.09.24.19.84.38.09.22.29.24.49.16zm-10 11.48h.22l.28-.4-.14-.39-.69.62zm9.59-7.68-.18-.27-.18.12.31.87.33-.05-.19-.15zm18.5 3.23h-.12l-.09.19.26.14zm-7.86-3.5.21-.1-.17-.11-.3.08zm-9.24-3.83-.08.09.06.07h.19zm12.87 6h.08v-.22h-.2l-.06.26zm-3.43-5.11v-.08h-.19zm.36 1.11h-.08v.19zm.94-1.93h-.06v.06zm-10.03-11.86h-.12v.18zm12.92 15.71h-.07v.18zm-1.24-11.71v.1l.14.11zm-17.6 12.33h-.08v.11z"/><path d="m23.24 85.3-.69.09-3.2-.77-2.84-.62-2.88-.44-2.25-.67-2.27-.58-2.28-.53-2.27-.59-1.34-.35-1-.27-.51-.72.42-1.27.92-.42 2.49-.91 1.58-.79 1.88-2.86-.19-1 .15-3-.12-3 .27-3.73.13-2.44-.05-2.43.12-2.44-.09-2.26v-2.3l-.17-2.47.2-2.47v-4.92l-.15-1.4-.77-2-1.93-2.2-2.56-2.07-1.33-1.37-.6-.92-.12-.5.47-.35.6-.32.77.14 2.08.58 2.56.82 2.66.44 2.61.64 2.63.59 2.07.39 2.06.45 2 .58 1.23.26.73.63-.35 1.25-1 .55-1.68.74-1.66.78-1.28.79-1.27 1.88-.18 1.53.22 3-.06 2.11.14 2.06-.14 2.07v2.49l.13 2.49v2.5 2.63l-.32 3.93-.03 2.67-.06 2.63v2.64l.28 1.34.76 2.66 2.4 2.46 1.84 1.27 1.25 1.08.8 1.11-.63 1.27zm-8.6-25.49h-.09.18zm-2.81-21.71.27-.17.07.13-.29-.06-.35-.16.1-.17h-.17l.12.15zm2.85 43-.08.21.18-.09h-.06zm-4.11-42.57.1.2h-.13l.11-.13.18-.41.17.13h.11v-.11l-.06-.19-.21-.02.07.23-.05.09zm-.46 35.32.15.08-.12-.13-.09-.24-.11.08v.11zm4.89-2.31-.16-.31-.14-.23-.09-.24h-.26l-.22-.06v.29h.59l.22.47-.13.13h.07zm-2 6.91.13-.26h.12v-.16l-.12.16-.15.16-.15-.13h-.16l-.08.17.23.11zm2.29-12 .12-.23h.1-.15v.25zm.95 12.86-.22.13h-.11l.15.08.13-.27h.14zm-1.52-31.31v-.3h.14l-.09-.16v.26l-.16.23zm-3.72 20.7h-.27v-.1l.19.18.21.29-.07.16h.22v-.23zm1.43 12h-.11l-.1-.79-.08.13-.24-.13-.07.27zm2.53-12.42.43.58-.93.63.17.91h.44v.11l.23-.56.29-.54-.16-.62h-.06l-.37-.45v-.11l-.08-.35-.1-.08h-.13v.17zm4.53 14.72.38-.15.61 1.15.24.13.21-.41-.06-.32-.21-.17-.16-.48-.5-.2-.18.11-.41-.43-.19-.15-.07.25zm-9.12-17 .78.06h.15l-.06-.06-.88.11-.16-.28-.45.26v.48l.07.15.27-.06zm3.83-3.93h.11l.4 1.18.14.1-.32 1.89v.2l.44.26.71-.34.32-1.74-.2-.24-.93.07v-.83zm1.82 20-.74-.62v-.1l-.18.22.46 1 .13.11.31-.48.13.11.34-.33-.09-.14-.18.1zm-5.9-23.07h-.12l.14.14-.14 1.38.05.53-.12.25.21.22.74-.11v-.07l-.15-.34-.1-.7.75-.59.34-1.07-.09-.07-.94-.6-.15.1-.15.07.25.75zm1.35 12.72v-.74h.15l-.05.06-.4-1-.37-.2-.25-.1-.19-.45-.28-.28-.11.38-.47 1.43.6.64h.26l.39.34.16.6.14.23.09-.24.27-.43-.04.04zm1.11-14.55h.19l-.14 2.45-.05 2.45v3.73l-.19 2.2-.05 2.15v4.3 1.52l.28.58.21.28.41-.3v-.5-2.4-2.4l.18-.88-.24-3.29.4-4.7-.15-1.14v-2.22l.09-2.21-.06-.25.16-2.79-.07-3.27v-2l-.19-2.39.22-2.46v-2.47l-.13-1.77-.09-.13-.42-.26-.27.48.06.88-.15 2v2l.1 2-.17 2.69.24 2.69v2.69zm-2.34 5.92.26.26.47.17.24-.17-.33-1.06-.26-.18-.34.81zm3.4 17-.2-.43-.18-.18-.56.63.4.66.27.1.21-.2zm-2.79-22.8.49-.34h.13v-.17l-.88-.1h-.21v.29zm5.49 23.49-.19-.14-.15-.3-.39.07.13.44.18.35h.46zm-4.64-2.46v.19l-.15.67.44.21.05-.3-.21-.7zm5.92 2.53-.85-.85-.06-.14-.09.26.81.77.05.12zm4.3 3.15-.07-.18-.12-.49h-.27l.07.2.21.44zm-12.18-15.58.1-.24-.1-.29-.25.11zm6.18-19.28-.48-.2h-.25v.27h.51l.14.1zm-4.09-12.61.08-.18.06-.09-.2-.16-.09.19-.07.13zm5.38 45.25h-.19l-.14.1.05.14zm-4.73-47.35-.21-.19v-.22l-.19.18.19.23v.25zm4.83 48.19h.2.1l-.17-.19zm-1.31-15.51v.17.1h.25-.19zm-4.84-31.17h-.16-.12l.17.29zm7 45-.12-.14v-.07l-.06.13zm-6.37-45.94-.15.07h-.07l.14.07zm-.26 31.84-.16-.05h-.08l.06.15zm.9-31.19v-.19l.1-.06-.22.1zm3.07 35.67v-.09h.08zm-4-3.58v.16h-.08.15zm4.21-17.48h-.11v-.05z"/><path d="m277.47 39-.08-2.18.19-2.18v-2.2-2.18l-.18-2.18.16-.76-.43-.24-1-.14-2.65.11-1.22-.1-.51-.63.14-1 .91-.69 2.18-1.84 2-2 1.65-2.17 1.37-2.36 1.15-1.82.92-1.95.73-1.49.55-.85.86-.32.73.78-.18 1.39-.22 2.66.18 2.66v2.41l-.22.38.5.42h1.39l2-.21 2-.05 2.61-.27 1.76.31.44.56-.2 1.64-1.43 2.54-1.88.94-1.51.23-2.28.08-2 .06h-.77l-.56.56v3.55l.18 2.91-.27.76.21 2.27-.12 2.28.15 2.28-.15 2.72.15 2.72.32 3 .42 1 2.1 1.64 2.74-.05 2.53-1.16 1.3-1.63.86-1.88.59-1.4.81-.6.82.49.11.77v2.83l-.84 2.7-1.38 2.17-1.86 1.81-2.47 1.13-2.61.76-2.16.01-2.13-.42-2-.82-2.73-2.16-1.21-2-.42-2.35.09-1.9-.23-1.9.13-2.49v-2.49l.06-2.49zm5-24h.33l-.11.31.1.16h.21l-.14-.18-.11-.29-.24.18-.07-.07zm-2.09 20.94h.07l-.17 2.06v2.12 2.12l.18 2.12-.17 3.55.52 2.16.71 2.08 1.16 1.68 1.68 1.17 1.95.63.37-.22.27-.19-.1-.36-.32-.27-1-.24-2.64-1.69-1.29-3-.34-2.62v-2.49l-.07-2.49-.12-2.49v-2.42l.21-2.43v-2.43l-.21-2.42-.06-2.43.24-2.43-.05-1 .34-.31 1.64-.06h3.29l2.53-.14h.36l.22-.32-.18-.36-.42.06-1-.19-2.19.16-2.2-.05h-2.19l-.63-.05-.59.55v2.78l.2 2.44-.12 2.48.2 2.43zm1.49-18.64-.06-.05h-.22l.15.2zm1 19.61.13.09z"/><path d="m311.74 36.46.05 2.41v2.41l.13 2.4-.07 2.41-.05 2.41v1.9l1.19 2.7 1.81 1.77.45.43.73.52.37 1.33-1.12.61h-1.14l-2.75.07h-2.74l-2.74.07-3 .06-2.16-.15-.61-.72.61-1.22.63-.62 1.52-1.34 1.29-1.73.49-2.1.25-1.9-.24-2.59v-2.59l.05-2.59.05-2.6.07-2.7-.16-2.7.23-2.7-.22-2.15-.66-1.77-2.29-2-1-.75-.53-1 .78-.82 1.44-.22 2.53-.05 2.53-.21 2.53.17.65-.14 1.15 1.38v1.39 2.31 2.3l.19 2.31-.09 2.3v2.31l-.06 1.39zm-5.56 6.36h-.18l.09.22zm3.91 4.25-.53.31.05.28.2-.08.28-.42.09-.21zm-1.27-7.68v-2.32-2.32l-.18-2.31.1-.52.08-.88v-2.4l-.07-2.41v-1.23l-.29-.33-.34.25-.1.34-.09.48-.06 2.16.06 2.66v2.66l.05 2.66-.05 2.74v2.75 2.74l-.17 2.15.06 2.16.06 2.15.08 2.16v.74.41h.36l.21-.16.14-.84.07-2.09.08-2.09-.13-2.27.24-3.54-.11-1.28zm-2.82-16.39-.37-.43-.42.32.39.34zm-1.57.84.2-.05v-.29l-.44-.26v-.06l-.07.1zm1 1.09.22-.12-.08-.17v.12z"/><path d="m45.62 13 .18 2.65-.07 1.28-.07.49 1.07 2.09 1 .37.11.26-.2.57-.92.42-2 .33-2 .56-2 .35h-.63l-.09-.37v-.37l.68-.58.83-1 .58-1.68-.09-.49.13-2.32.06-2.32v-2.33l-.43-1.47-1.22-1.44-2-.26-2 .47-1.54 1.46-1.18 1.7-.49 2.63.14 1.9-.12 3.55v.63l1 1.62 1 .8v.79h-.27l-.45.26-2.12.35-2.1.49-2.11.39-.24.12-.41-.61.31-.56.81-.63 1-2.72.23-2.67v-2.66-2.41l-.18-2.41.18-2.4-.17-2.41.17-1.27-.88-1.36-.9-.7-.4-.29.1-.57.16-.2.35-.16 2-.49 2.11-.21.36-.17.44.44.16.75-.11 2.16-.06 2.15.09 2.15.19.14.18.11.21-.35.78-.83 1.55-1.11 2.37-1.05 2.56-.19 2.87.87 1.29 2.81.22 1.75.17 2.89-.07.28zm-14.47-5 .12-.42v-.2h.27l.13-.24-.19.07-.15.06-.06.2-.11.53-.08.25zm13.17 1.81h-.13v-.2l-.19-.03-.18.07.27.08zm.25 9.13.46.17h.09l.12-.13-.36-.38-.24.36-.16-.05v.16zm.09-7.45-.29-.35v-.05l-.2-.06-.31.82h.44zm-1.26 7h-.18v-.05l-.46.4-.06.17.18-.09zm-11.95-1 .13-.26-.09-.11-.25.33zm12.24-4.77-.07-.08h.14z"/><path d="m57.4 18.79-3.22-.33-2.43-1.18-1.33-2.37-.51-2.47.32-2.57.56-2.52 1.29-2.41 1.76-2.12 2.34-1.44 3.39-1 3-.21 1.95.83 1.39 1.53 1.22 2.34v2.54l-.59.72-.85.22-2.69.51-2.61.49-2.48.51-2.46.59-1 .27-.29.47-.14 1.61.59 1.67 2.28 1.53 2.22.27 3-1 1.08-.86.67-.93-.37-1.48.07-.88.84-.31 1.6-.37 1.3 1.06v.39l-.27 1.34-1.03 2.12-1.87 1.42-2.1 1-2.25.84zm-3.83-12.34h.22l-.19-.29h.1v.14zm9.11-4.2.23-.25-.08-.21h.08v.22l-.37.13v.12zm.78 4-.31-1.54-2.67-1.78-1.81.12-1.59.88-1.6 1.36-.82 1.93.73.9.35-.18 2.16-.36 2.17-.33 2.11-.6.82-.18z"/><path d="m313 11.52-.7 2.48-1.82 1.71-2.39.73-2.09-.34-1.66-1.39-1.06-1.88-.16-2.2 1.29-2.15 1.92-1.55 1.33-.39.51.14 2.36.62 1.83 1.7.64 2.43z"/><path d="m183.61 48.22-.05 2.28v2.28 2.28l-.13 2.28.14 2.28.07 2.27.56 2.16.41.48 1.87 1.53 1.41.86.06.87-.3.74-.91.47-2.26.24-1.88.28-2.38.35-2.4.21-2.89.31-1.25.19h-1.18l-.5-.45.32-1.15.6-.63 1.62-1.61 1.46-1.88.29-1.49.3-2.76v-3l-.2-3.61.25-2.34v-2.31l-.12-2.79v-2.78l.14-1.9-.24-1.64-1-2.12-2-1.53-1-.76-.42-1.51.37-.14.55-.25 1-.35 2.77-.3 3-.45 1.89-.16 1 .1.89.79.12.74.15 1.9-.07 2.4v2.41 2.4l.07 2.41-.1 2.4zm-3.38 2.35h.05v-2.4-1.65l.16-2.47-.14-2.47-.08-2.15.12-2.15v-.88l-.05-.4-.38-.09h-.39l-.09.53.07 1.14-.05 2.91v2.91 2.35l-.11 2.34-.06 2.34v4.57l.05 2.22-.06 2.22v2.21l.1 2.54.08.62.42.11.38-.14.1-.53-.23-2.41.26-2.72v-2.73l-.14-1.39v-2.22zm2.63-2.6-.66-.4-.08.13.06.21.55.33z"/><path d="m184.6 23-.28 2-1 1.77-1.75 1.23-2 .63-2.8-.63-1.7-2.32.12-3.09 1.2-2.14 2-1.36 1.77-.36 1.78.22 1.94 1.27.7 2.21zm-6 1.92v-.16h.13l-.21.1v.06zm2.65-1.6-.24-.28-.33.11-.14.25.18.16h.26zm-1.21.57-.46-.27v-.07l-.11.3.44.15zm.96 1.11h-.19.07v.1z"/><path d="m70.24 23.67-1.52.22-1.52.11-2 .28-1.94.45-1.81.35-1.78.51-1.78.47-2 .58-2 .67-1.4.58-1.41.57-1.24.43-.76-.09-.08-.55.33-.41 1.25-.78 1.71-.9 1.71-.81 1.55-.78 1.66-.5 1.62-.62 1.71-.45 1.91-.69 2-.48 2-.46 2.08-.44 2.13-.15 2.31.09 1.89.44 1.08.5 1.31 1.06.73 1.58-.32 1.9-1.36 1.32-2.09.73-1.27-.32-.42-.5.15-.67.48-.3.62-.17.19-1.53-.57-.71-1.54-.32zm2.59-1.31v-.11l.17-.25-.11-.17v.13l-.09.32zm3.65 3v.18l.08.08.13-.16z"/><path d="m60.99 28.07 1.1-.12h.38l1.56.21 1.56.11 1.57.17.86.37.78.89-.48.99-.86.21-1.27-.28-2.1-.52-2.16-.29-1.01-.08-1.6.17-1.6.01-1.58.27-1.25.34h-.95l-.26-.3-.22-.45.55-.52.73-.12 1.74-.46 1.75-.39 1.38-.12z"/></g><path d="m397.78 65.76-.74-.37z" fill="#f0b43a" opacity=".7"/><path d="m389.57 57.16-.24-.09.14-.3z" fill="#f0b43a" opacity=".7"/><path d="m71.71 131.33.11.37-.03.32-.18.14.12-.02-.34-.5.01.07.28-.27z" fill="#f0b43a" opacity=".7"/><path d="m74.72 131.79-.19.1-.02-.1.02-.12z" fill="#f0b43a" opacity=".7"/><path d="m71.37 131.66-.13-.18v-.1l.19-.13.19.14.09.08-.46.11z" fill="#f0b43a" opacity=".7"/><path d="m73.65 132.05v-.15z" fill="#f0b43a" opacity=".7"/><path d="m106.16 135.94.08-.07z" fill="#f0b43a" opacity=".7"/><path d="m106.16 144.29.08-.07z" fill="#f0b43a" opacity=".7"/><path d="m82.87 139.51a161.49 161.49 0 0 1 -20.91-2.41.46.46 0 0 1 -.37-.54.46.46 0 0 1 .53-.37 159.8 159.8 0 0 0 20.8 2.4.46.46 0 0 1 .43.49.45.45 0 0 1 -.48.43z" fill="#f0b43a" opacity=".7"/><path d="m110.74 141.09q-3 0-5.95-.15a.47.47 0 0 1 -.43-.49.44.44 0 0 1 .48-.43 163.33 163.33 0 0 0 20.94-.53.44.44 0 0 1 .49.42.46.46 0 0 1 -.42.49c-4.6.36-9.79.69-15.11.69z" fill="#f0b43a" opacity=".7"/><path d="m153.59 137.19a.46.46 0 0 1 -.07-.92c3.19-.46 6.44-.82 9.64-1.05a.46.46 0 1 1 .07.92c-3.18.23-6.41.58-9.58 1z" fill="#f0b43a" opacity=".7"/><path d="m168.41 136.33a.44.44 0 0 1 -.35-.16.46.46 0 0 1 .05-.65 7.1 7.1 0 0 1 4.06-2 17.24 17.24 0 0 1 3.59 0c5.61.76 11.41-.75 15.13-3.94a.46.46 0 0 1 .6.7c-3.92 3.35-10 4.95-15.86 4.16a15.83 15.83 0 0 0 -3.37 0 6 6 0 0 0 -3.55 1.77.47.47 0 0 1 -.3.12z" fill="#f0b43a" opacity=".7"/><g fill="#f0b43a" opacity=".7"><path d="m364.11 59.07-.01-.5h.71z"/><path d="m366.89 57.45.06.1z"/><path d="m366.68 58.84-.01-.03-.04-.12z"/><path d="m366.17 47.4.1.02-.13.12.03-.08z"/><path d="m366.34 44.66.16.12-.09-.06z"/><path d="m366.55 45.54-.1.23.07-.08.06.01z"/><path d="m366.68 45.71.19-.37.11.16-.44.13z"/><path d="m373.49 60.6.18.09.09.27z"/><path d="m71 89.79-.18.17z"/><path d="m70.06 90.28.04.06-.01-.09z"/><path d="m139.82 78.8.01.11.01.06z"/><path d="m169.56 72.16.06.44-.42-.07z"/><path d="m252.48 57.54.05.1-.17-.02z"/><path d="m255.2 57.69-.1-.1.03-.03z"/><path d="m252.11 58.61.05-.29-.08.02-.01.25z"/><path d="m252.11 58.33-.13-.12.1.15z"/><path d="m251.79 57.07.15.1-.05-.25z"/><path d="m273.67 53.98h-.21l.01-.09.17.12z"/><path d="m274.38 51.98-.06.21v-.13z"/><path d="m257.47 53.07.19-.07-.2.25z"/><path d="m257.68 54.3-.29.08z"/><path d="m241.56 46.96.3-.12-.14.27-.11-.02z"/><path d="m123.16 62.27-.15-.28-.04.11.14-.14.21.09z"/><path d="m101.18 46.9.24.2-.12.12-.05-.34z"/><path d="m101.17 46.89-.04.05-.02.04z"/><path d="m113.46 41.93.03-.13.05.07z"/><path d="m106.64 56.55.04.27.06-.21z"/><path d="m228.1 57.08h.05z"/><path d="m205.22 36.81.07-.02-.01-.12z"/><path d="m228.86 48.1.07.09z"/><path d="m225.78 41.08.29-.11z"/><path d="m355.5 47.34-.06.08z"/><path d="m352.46 45.85h.05z"/><path d="m269.19 90.67-.12.1z"/><path d="m268.86 90.86.31-.15-.02.18-.18-.01z"/><path d="m243.35 83.92.21-.23v.24z"/><path d="m245.9 85.8-.42-.37z"/><path d="m246.07 85.89-.32-.2z"/><path d="m244.49 84.48.02-.36.03.25z"/><path d="m245.37 84.23-.13.04.11-.09z"/><path d="m269.43 100.11.1.17-.19-.14z"/><path d="m269.68 81.27.08.47-.38-.08z"/><path d="m194.62 113.03-.02.2-.06-.04.03-.03.08-.06z"/><path d="m190.77 111.34.06-.04.01-.08z"/><path d="m167.25 122.48.05-.53.09.05.75.21z"/><path d="m19.79 82.93-.33.01.34-.24z"/><path d="m6.19 74a.47.47 0 0 1 -.43-.49c.68-9.74 1-19.62 1-29.37a9.76 9.76 0 0 0 -.39-3.25 9.58 9.58 0 0 0 -2.7-3.39l-3.52-3.27a.46.46 0 0 1 0-.65.45.45 0 0 1 .65 0l3.48 3.22a10.31 10.31 0 0 1 2.93 3.75 10.11 10.11 0 0 1 .45 3.56c0 9.78-.31 19.68-1 29.44a.47.47 0 0 1 -.47.45z"/><path d="m24.26 88.46h-.08c-3.24-.56-6.51-1.18-9.73-1.83a112.53 112.53 0 0 1 -12.39-3.31.46.46 0 0 1 -.3-.58.45.45 0 0 1 .58-.3 113.72 113.72 0 0 0 12.29 3.29c3.21.65 6.48 1.26 9.71 1.82a.45.45 0 0 1 .37.53.44.44 0 0 1 -.45.38z"/><path d="m29.76 67.57a.46.46 0 0 1 -.42-.5 184.64 184.64 0 0 0 .38-20.91 9.35 9.35 0 0 0 -.32-2.49 9 9 0 0 0 -2.61-3.54.46.46 0 1 1 .64-.66 9.84 9.84 0 0 1 2.85 3.92 10.57 10.57 0 0 1 .37 2.74 188.8 188.8 0 0 1 -.39 21 .47.47 0 0 1 -.5.44z"/><path d="m43.73 77.17a104.65 104.65 0 0 1 -13.88-2 .47.47 0 0 1 -.36-.55.45.45 0 0 1 .55-.35 102.84 102.84 0 0 0 13.76 1.93.47.47 0 0 1 .43.49.46.46 0 0 1 -.5.48z"/><path d="m53.51 70.89a.45.45 0 0 1 -.4-.51c.59-5.11.75-16.52.7-17.44 0-3-.68-7-6.87-7.12a.46.46 0 0 1 -.45-.47.45.45 0 0 1 .47-.45c5.18.12 7.8 2.82 7.78 8 .05 1.23-.12 12.48-.72 17.57a.47.47 0 0 1 -.51.42z"/><path d="m77.73 70.64h-.06a.45.45 0 0 1 -.4-.51c.25-2.14.45-6.57 0-15.56v-.36c0-3-.69-7-6.88-7.12a.47.47 0 0 1 -.45-.47.45.45 0 0 1 .48-.45c5.18.12 7.79 2.82 7.77 8v.34c.45 9 .24 13.54 0 15.71a.47.47 0 0 1 -.46.42z"/><path d="m66.76 79.15c-.81 0-2.12-.12-3.3-.23-.69-.07-1.29-.13-1.61-.14-4.05-.16-8.89-.7-8.94-.7a.47.47 0 0 1 -.41-.51.48.48 0 0 1 .51-.41c.05 0 4.86.54 8.88.7.33 0 1 .07 1.66.14a29.76 29.76 0 0 0 3.54.22.46.46 0 0 1 .51.41.45.45 0 0 1 -.41.5 2.75 2.75 0 0 1 -.43.02z"/><path d="m77.27 79.69a.46.46 0 0 1 -.06-.92 27.53 27.53 0 0 1 3.73-.16h9.76a.45.45 0 0 1 .45.47.46.46 0 0 1 -.46.46h-9.73a25.68 25.68 0 0 0 -3.63.16z"/><path d="m90.35 70.58a.47.47 0 0 1 -.46-.39c-1.33-8.57 3.87-12.32 6.28-13.58a7.58 7.58 0 0 1 -3.87-10.7.46.46 0 1 1 .81.45 6.66 6.66 0 0 0 4.47 9.72.46.46 0 0 1 0 .89c-.35.11-8.41 2.86-6.83 13.08a.45.45 0 0 1 -.38.52z"/><path d="m231.91 54a.45.45 0 0 1 -.46-.41c-.9-8.63 4.48-12.11 7-13.25a7.57 7.57 0 0 1 -3.33-10.87.46.46 0 0 1 .63-.16.47.47 0 0 1 .16.64 6.65 6.65 0 0 0 4 9.93.48.48 0 0 1 .35.45.45.45 0 0 1 -.35.44c-.34.1-8.54 2.44-7.46 12.72a.47.47 0 0 1 -.45.51z"/><path d="m105.81 54.55a.45.45 0 0 1 -.45-.37.46.46 0 0 1 .36-.54c3.23-.66 5.79-1.58 6.16-2a2.44 2.44 0 0 0 -.25-3 4.92 4.92 0 0 0 -3.15-1.47.46.46 0 0 1 -.4-.51.47.47 0 0 1 .52-.4 5.81 5.81 0 0 1 3.73 1.74 3.38 3.38 0 0 1 .27 4.17c-.76 1-4.57 1.93-6.7 2.36z"/><path d="m248.48 37.33a.46.46 0 0 1 -.48-.33.45.45 0 0 1 .34-.55c3.22-.74 5.75-1.73 6.1-2.19a2.36 2.36 0 0 0 -.33-2.92 5 5 0 0 0 -3.2-1.34.46.46 0 0 1 .09-.92 5.87 5.87 0 0 1 3.78 1.64 3.29 3.29 0 0 1 .39 4.1c-.73 1-4.51 2-6.62 2.53z"/><path d="m104.73 80.5a26.83 26.83 0 0 1 -4.68-.54 15.44 15.44 0 0 1 -4.64-1.32.46.46 0 0 1 .43-.82 14.6 14.6 0 0 0 4.37 1.24 25.63 25.63 0 0 0 4.61.52 16.51 16.51 0 0 0 10.46-4.35.54.54 0 0 1 .37-.11.47.47 0 0 1 .32.21 7 7 0 0 0 5.94 2.9.46.46 0 0 1 .46.46.47.47 0 0 1 -.46.46 8 8 0 0 1 -6.42-2.89 17.25 17.25 0 0 1 -10.66 4.24z"/><path d="m152.48 35.92a.45.45 0 0 1 -.44-.34 10.41 10.41 0 0 1 2.7-9.93.47.47 0 0 1 .65 0 .46.46 0 0 1 0 .65 9.48 9.48 0 0 0 -2.46 9 .47.47 0 0 1 -.33.57z"/><path d="m148.79 56.76a4.85 4.85 0 0 1 -1.86-.36.45.45 0 0 1 -.25-.6.46.46 0 0 1 .6-.25 4.74 4.74 0 0 0 4.5-.72 7.47 7.47 0 0 0 2.57-3.95 6.45 6.45 0 0 0 0-4.23 3.74 3.74 0 0 0 -3.22-2.35.47.47 0 0 1 0-.93 4.66 4.66 0 0 1 4 2.92 7.27 7.27 0 0 1 .07 4.85 8.37 8.37 0 0 1 -2.91 4.43 6 6 0 0 1 -3.5 1.19z"/><path d="m159.57 80.14a.46.46 0 0 1 -.46-.45 1.2 1.2 0 0 0 -.44-.93c-1.62-1.44-7.34-1.11-11.5-.74-7.8.7-12.67-1.77-12.87-1.87l-.09-.06a8.33 8.33 0 0 1 -3.06-6.09c-.14-3.82 2.35-7.59 4.06-9.46-2.49-2.85-3.51-9.76-1.12-15a.45.45 0 0 1 .61-.23.47.47 0 0 1 .23.61c-2.34 5.14-1.26 11.9 1.23 14.29a.46.46 0 0 1 .15.33.51.51 0 0 1 -.13.33c-.18.18-4.28 4.42-4.11 9.1a7.42 7.42 0 0 0 2.7 5.36 24.73 24.73 0 0 0 12.32 1.75c7.07-.63 10.71-.34 12.19 1a2.13 2.13 0 0 1 .75 1.59.46.46 0 0 1 -.44.48z"/><path d="m144 95.5c-6.55 0-11.81-2-13.74-5.17-3.6-6 .46-10.18.5-10.22a.46.46 0 0 1 .65 0 .47.47 0 0 1 0 .66c-.15.15-3.58 3.72-.36 9.09s17.2 6.85 29.76.68a.47.47 0 0 1 .62.21.46.46 0 0 1 -.22.61 39.6 39.6 0 0 1 -17.21 4.14z"/><path d="m178.83 31.13a6.08 6.08 0 0 1 -4.06-1.5c-3.25-2.78-2.06-7.34-2-7.53a.46.46 0 0 1 .56-.33.47.47 0 0 1 .33.57s-1.09 4.19 1.71 6.59a5.73 5.73 0 0 0 6.16.69.47.47 0 0 1 .62.2.46.46 0 0 1 -.19.62 7.66 7.66 0 0 1 -3.13.69z"/><path d="m170.7 67.65a.46.46 0 0 1 -.33-.78 11.45 11.45 0 0 0 3.11-4.35 11.21 11.21 0 0 0 .32-3.08c0-5.14-.1-10.35-.41-15.48a7.66 7.66 0 0 0 -.42-2.49c-.6-1.44-2-2.35-3.65-3.31a.46.46 0 0 1 .47-.8c1.38.81 3.26 1.91 4 3.76a8.45 8.45 0 0 1 .49 2.78c.31 5.16.45 10.39.41 15.55a12.09 12.09 0 0 1 -.36 3.34 12.1 12.1 0 0 1 -3.33 4.72.45.45 0 0 1 -.3.14z"/><path d="m173.66 73.26a.46.46 0 0 1 0-.92 63.09 63.09 0 0 0 6.59-.82 52.43 52.43 0 0 1 8.06-.86.46.46 0 0 1 .46.46.47.47 0 0 1 -.46.46 52.55 52.55 0 0 0 -7.92.85 63.47 63.47 0 0 1 -6.68.83z"/><path d="m307.29 18.72a6.08 6.08 0 0 1 -4.06-1.5c-3.25-2.79-2.05-7.35-2-7.54a.46.46 0 0 1 .89.24s-1.09 4.2 1.71 6.6a5.82 5.82 0 0 0 6.16.69.46.46 0 0 1 .62.19.47.47 0 0 1 -.19.63 7.66 7.66 0 0 1 -3.13.69z"/><path d="m299.18 54.5a.49.49 0 0 1 -.34-.14.46.46 0 0 1 0-.65 11.46 11.46 0 0 0 3.21-4.27 11.29 11.29 0 0 0 .39-3.07c.15-5.13.14-10.35 0-15.49a7.69 7.69 0 0 0 -.36-2.5c-.57-1.46-1.95-2.4-3.57-3.4a.46.46 0 0 1 .48-.78c1.36.84 3.23 2 4 3.85a8.7 8.7 0 0 1 .43 2.79c.18 5.17.2 10.4 0 15.55a11.91 11.91 0 0 1 -.44 3.34 12 12 0 0 1 -3.44 4.64.45.45 0 0 1 -.36.13z"/><path d="m302.74 60.88c-.41 0-.81 0-1.22 0a.46.46 0 0 1 -.45-.47.47.47 0 0 1 .48-.45 63.48 63.48 0 0 0 6.63-.23 52.06 52.06 0 0 1 8.1-.16.45.45 0 0 1 .42.5.46.46 0 0 1 -.49.42 52.83 52.83 0 0 0 -8 .15c-1.77.11-3.62.24-5.47.24z"/><path d="m190.63 65.2a.43.43 0 0 1 -.19 0 .47.47 0 0 1 -.23-.61 6.9 6.9 0 0 1 1.66-2 6.25 6.25 0 0 0 1.42-1.7 6.25 6.25 0 0 0 .4-2.81c0-6.38-.17-12.85-.37-19.22a2.28 2.28 0 0 0 -.14-.92 2.16 2.16 0 0 0 -.69-.73 22.89 22.89 0 0 0 -3.56-2.28.45.45 0 0 1 -.2-.62.47.47 0 0 1 .62-.2 24 24 0 0 1 3.71 2.37 3.11 3.11 0 0 1 1 1.07 3.19 3.19 0 0 1 .23 1.28c.2 6.38.32 12.85.36 19.25a7.07 7.07 0 0 1 -.49 3.21 7 7 0 0 1 -1.62 2 6.11 6.11 0 0 0 -1.45 1.76.46.46 0 0 1 -.46.15z"/><path d="m195.11 70.42a.46.46 0 0 1 -.07-.92l14.08-1.88a.46.46 0 1 1 .12.92l-14.07 1.88z"/><path d="m217.84 67.32a.46.46 0 0 1 -.06-.92l14.07-1.88a.48.48 0 0 1 .52.4.47.47 0 0 1 -.4.52l-14.07 1.88z"/><path d="m215.06 61.22a.47.47 0 0 1 -.42-.27.45.45 0 0 1 .23-.61 5.08 5.08 0 0 0 2.51-3.24 15.19 15.19 0 0 0 .41-4.45c0-4.46-.26-8.87-.61-13.11a5.72 5.72 0 0 0 -.36-1.83 3.36 3.36 0 0 0 -3.15-1.7 7.39 7.39 0 0 0 -3.76 1.42.46.46 0 0 1 -.51-.77 8.21 8.21 0 0 1 4.24-1.57 4.26 4.26 0 0 1 4 2.24 6.17 6.17 0 0 1 .45 2.13c.35 4.27.56 8.7.61 13.18a15.8 15.8 0 0 1 -.44 4.72 6 6 0 0 1 -3 3.81.49.49 0 0 1 -.2.05z"/><path d="m104.78 70.63a.46.46 0 0 1 0-.92 8.87 8.87 0 0 0 5.27-1.71c1.49-1.26 2.35-3.34 2.63-6.36a.48.48 0 0 1 .51-.42.47.47 0 0 1 .41.51c-.3 3.26-1.27 5.55-2.95 7a9.72 9.72 0 0 1 -5.84 2z"/><path d="m247.34 63.87a30.49 30.49 0 0 1 -4.19-.38 15.45 15.45 0 0 1 -4.68-1.16.46.46 0 0 1 -.21-.62.46.46 0 0 1 .61-.21 14.7 14.7 0 0 0 4.41 1.08 26.53 26.53 0 0 0 4.63.36 16.54 16.54 0 0 0 10.3-4.7.44.44 0 0 1 .36-.12.45.45 0 0 1 .33.19 7 7 0 0 0 6 2.69.43.43 0 0 1 .48.45.46.46 0 0 1 -.44.48 8 8 0 0 1 -6.51-2.67 17.27 17.27 0 0 1 -10.52 4.6z"/><path d="m247.8 53.86a.47.47 0 0 1 -.46-.43.45.45 0 0 1 .43-.49 9 9 0 0 0 5.31-1.75c1.48-1.27 2.34-3.35 2.62-6.36a.46.46 0 0 1 .51-.42.46.46 0 0 1 .41.5c-.3 3.27-1.27 5.55-3 7a9.76 9.76 0 0 1 -5.84 2z"/><path d="m286.87 61.22c-6.69-.32-10.61-2.77-11.34-7.09a25.42 25.42 0 0 1 -.53-4.93c-.24-6.44-.24-13 0-19.43a24.2 24.2 0 0 1 -3.51-.16.46.46 0 0 1 -.41-.51.47.47 0 0 1 .52-.4 23.57 23.57 0 0 0 3.85.13.44.44 0 0 1 .35.13.49.49 0 0 1 .14.34c-.24 6.6-.24 13.28 0 19.86a23.37 23.37 0 0 0 .51 4.79c.82 4.88 6.15 6.14 10.47 6.34a.47.47 0 0 1 0 .93z"/><path d="m343.55 51.18a.42.42 0 0 1 -.26-.08.45.45 0 0 1 -.11-.64 15.64 15.64 0 0 0 1.25-15.46c-1.33-2.79-3.45-4.55-5.66-4.73a.46.46 0 0 1 -.42-.5.47.47 0 0 1 .5-.42c2.53.2 4.93 2.17 6.41 5.25a16.55 16.55 0 0 1 -1.33 16.4.47.47 0 0 1 -.38.18z"/><path d="m337.92 63.25h-.06c-4.81-.57-19.45-2.32-21.23-21.81-.57-6.57 1-12.33 4.19-15a.46.46 0 0 1 .6.7c-2.3 2-4.53 6.77-3.87 14.26 1.71 18.75 15.79 20.43 20.42 21a.47.47 0 0 1 .41.51.47.47 0 0 1 -.46.34z"/><path d="m356.67 59.67a.46.46 0 0 1 -.2-.87 5.84 5.84 0 0 0 3.09-3.71 11.75 11.75 0 0 0 .26-3.16c-.05-5.36-.24-10.81-.57-16.18a7.23 7.23 0 0 0 -1-3.94 7.11 7.11 0 0 0 -.85-.9 5.94 5.94 0 0 1 -1.29-1.56.47.47 0 0 1 .21-.62.46.46 0 0 1 .62.21 4.92 4.92 0 0 0 1.1 1.3 9.31 9.31 0 0 1 1 1 8.12 8.12 0 0 1 1.19 4.44c.33 5.38.52 10.84.57 16.22a12.59 12.59 0 0 1 -.29 3.41 6.78 6.78 0 0 1 -3.58 4.3.45.45 0 0 1 -.26.06z"/><path d="m392.43 73.3a8.48 8.48 0 0 1 -6.66-3.3 13.34 13.34 0 0 1 -2.09-4.66c-1.64-6-1.51-12.43-1.38-18.6 0-.76 0-1.51 0-2.26 0-2.36-.16-4.93-1.88-6.18-1.39-1-3.36-.84-5.27-.58a.47.47 0 0 1 -.52-.39.46.46 0 0 1 .4-.52c2.08-.29 4.27-.47 5.93.74 2.07 1.5 2.31 4.35 2.26 6.94v2.27c-.12 6.1-.25 12.42 1.35 18.34a12.7 12.7 0 0 0 1.93 4.34 7.45 7.45 0 0 0 12.27-.65.46.46 0 1 1 .79.48 8.5 8.5 0 0 1 -6.7 4z"/><path d="m372.35 67.17h-.05c-1.61-.17-4.4-.7-7.1-1.21a55.39 55.39 0 0 0 -6.52-1 .45.45 0 0 1 -.52-.38.46.46 0 0 1 .38-.53c.68-.1 3 .34 6.83 1 2.68.51 5.45 1 7 1.2a.46.46 0 0 1 .41.5.47.47 0 0 1 -.43.42z"/><path d="m61.68 130.52a.45.45 0 0 1 -.39-.21.46.46 0 0 1 .13-.64 49.67 49.67 0 0 0 4.06-2.9 3.87 3.87 0 0 0 .94-1 3.94 3.94 0 0 0 .26-1.78c-.06-8.89-.23-17.93-.4-26.68a5.81 5.81 0 0 0 -.37-2.31 5.16 5.16 0 0 0 -1.13-1.37 47.19 47.19 0 0 0 -4.41-3.7.46.46 0 0 1 -.1-.65.47.47 0 0 1 .65-.09 47.64 47.64 0 0 1 4.49 3.77 5.74 5.74 0 0 1 1.32 1.63 6.32 6.32 0 0 1 .47 2.7c.17 8.75.34 17.79.4 26.69a4.62 4.62 0 0 1 -.36 2.21 4.49 4.49 0 0 1 -1.15 1.32 49 49 0 0 1 -4.17 3 .42.42 0 0 1 -.24.01z"/><path d="m93.46 116.47a.32.32 0 0 1 -.14 0 .45.45 0 0 1 -.29-.58c1.77-5.25 3.59-9.91 5.52-14.84.87-2.21 1.74-4.46 2.63-6.8a1.62 1.62 0 0 0 -.26-2.1l-1.59-2.05a.46.46 0 0 1 .73-.57l1.59 2.06a3 3 0 0 1 .68 1.24 3.11 3.11 0 0 1 -.29 1.74c-.89 2.35-1.76 4.6-2.63 6.81-1.92 4.93-3.74 9.58-5.51 14.8a.45.45 0 0 1 -.44.29z"/><path d="m101.3 134.76a.49.49 0 0 1 -.38-.19.47.47 0 0 1 .11-.65c.46-.32.92-.61 1.38-.9 1.47-.92 2.74-1.72 3.33-3.26a12 12 0 0 0 .64-3.39 114.72 114.72 0 0 0 .11-18.35.46.46 0 1 1 .92-.07 115.43 115.43 0 0 1 -.11 18.5 13.12 13.12 0 0 1 -.7 3.65c-.71 1.82-2.16 2.73-3.7 3.7-.44.28-.89.56-1.33.88a.53.53 0 0 1 -.27.08z"/><path d="m88.81 140.09a.46.46 0 0 1 -.43-.29c-2.11-5.3-3.78-9.49-5.44-14.52-1-3-2.08-6-3.14-8.84s-2.16-5.9-3.14-8.86a.46.46 0 0 1 .87-.29c1 2.95 2.07 5.94 3.14 8.83s2.16 5.9 3.14 8.87c1.66 5 3.32 9.18 5.43 14.47a.46.46 0 0 1 -.26.6z"/><path d="m131.43 137.93h-.1c-3-.66-5.09-3.79-5.94-6.26a24.85 24.85 0 0 1 -.87-8.37v-3.37c0-3.71.09-7.54-.14-11.3a2.39 2.39 0 0 0 -.18-.92 2.46 2.46 0 0 0 -.59-.62l-2.26-1.91a.46.46 0 1 1 .59-.71l2.27 1.91a3.49 3.49 0 0 1 .8.89 3.34 3.34 0 0 1 .29 1.3c.23 3.79.19 7.65.15 11.37v3.37a24 24 0 0 0 .82 8.06c.77 2.25 2.61 5.08 5.27 5.66a.44.44 0 0 1 .35.54.46.46 0 0 1 -.46.36z"/><path d="m145 128.15a.45.45 0 0 1 -.39-.21.47.47 0 0 1 .13-.64 9.26 9.26 0 0 0 4-5.76 13.77 13.77 0 0 0 .26-2.12c.08-1.41.06-2.86 0-4.26l-.16-8.91a3.56 3.56 0 0 0 -.13-1 3.33 3.33 0 0 0 -1.45-1.43l-1.37-.89a.46.46 0 1 1 .51-.77l1.37.89a4.21 4.21 0 0 1 1.81 1.89 4.3 4.3 0 0 1 .18 1.35l.16 8.91c0 1.41.06 2.88 0 4.32a14.18 14.18 0 0 1 -.28 2.26 10.25 10.25 0 0 1 -4.37 6.35.47.47 0 0 1 -.27.02z"/><path d="m190.15 106.33a.46.46 0 0 1 -.45-.38c-.35-1.73-2.78-4.09-4.06-4.53a7.57 7.57 0 0 0 -2.48-.34 15.42 15.42 0 0 0 -4.62.71.45.45 0 0 1 -.57-.3.46.46 0 0 1 .3-.58 16.21 16.21 0 0 1 4.89-.75 8.32 8.32 0 0 1 2.78.39c1.54.53 4.24 3.08 4.66 5.22a.47.47 0 0 1 -.36.55z"/><path d="m185.19 123.51a.46.46 0 0 1 -.41-.26.46.46 0 0 1 .2-.62 5.6 5.6 0 0 0 1.84-1.31 1.9 1.9 0 0 0 .41-1.84 2 2 0 0 0 -.68-.82 5.18 5.18 0 0 0 -2.8-.94 17.34 17.34 0 0 0 -2.39 0h-.81a29.27 29.27 0 0 1 -7.17-.62 14.78 14.78 0 0 1 -5.58-2.22 9.92 9.92 0 0 1 -2.12-2 .46.46 0 1 1 .72-.57 9.36 9.36 0 0 0 1.93 1.84 13.78 13.78 0 0 0 5.24 2.06 28.46 28.46 0 0 0 7 .61h.79a19.24 19.24 0 0 1 2.52 0 6.11 6.11 0 0 1 3.28 1.13 3 3 0 0 1 1 1.2 2.84 2.84 0 0 1 -.56 2.77 6.22 6.22 0 0 1 -2.13 1.55.42.42 0 0 1 -.28.04z"/><path d="m164.46 130.32a.45.45 0 0 1 -.46-.44c-.15-3.56-.25-7.17-.28-10.74a.46.46 0 0 1 .45-.46.44.44 0 0 1 .47.45c0 3.56.13 7.16.28 10.71a.46.46 0 0 1 -.44.48z"/><path d="m224.75 98.87a.46.46 0 0 1 -.46-.42 11 11 0 0 0 -.6-2.77 3.85 3.85 0 0 0 -2.57-2.26 4.57 4.57 0 0 0 -3.71.2c-.22.11-.43.24-.64.37a.46.46 0 1 1 -.49-.78c.23-.14.46-.29.7-.41a5.51 5.51 0 0 1 4.48-.24 4.89 4.89 0 0 1 3.11 2.82 12.44 12.44 0 0 1 .64 3 .46.46 0 0 1 -.41.5z"/><path d="m210 110.82a.47.47 0 0 1 -.44-.34.46.46 0 0 1 .32-.57c3.73-1 7.59-1.71 11.33-2.36l13.13-2.27a.45.45 0 0 1 .53.37.48.48 0 0 1 -.38.54l-13.13 2.27a113.14 113.14 0 0 0 -11.23 2.34z"/><path d="m214.9 129.29c-.4 0-9.51-.46-13.1-5.71-3.39-5-4.35-9-4-16.87a28.34 28.34 0 0 1 4.54-13.46.48.48 0 0 1 .65-.12.47.47 0 0 1 .11.65 27.73 27.73 0 0 0 -4.37 13c-.4 7.67.49 11.48 3.79 16.3s12.27 5.31 12.36 5.31c.13 0 9.93 0 16.63-5.41a.47.47 0 0 1 .65.08.45.45 0 0 1 -.07.64c-6.84 5.48-16.43 5.59-17.19 5.59z"/><path d="m248.05 122.73a10.14 10.14 0 0 1 -9-5.69 17.52 17.52 0 0 1 -1.31-6c-.38-4.39-.45-8.86-.52-13.18l-.06-3.16a13.58 13.58 0 0 0 -.16-2.6 6.76 6.76 0 0 0 -4-4.7.46.46 0 1 1 .34-.86 7.59 7.59 0 0 1 4.57 5.36 14.49 14.49 0 0 1 .25 2.8l.06 3.17c.07 4.3.15 8.75.52 13.11a17.15 17.15 0 0 0 1.22 5.67 9.17 9.17 0 0 0 8.38 5.16.46.46 0 0 1 0 .92z"/><path d="m265.51 120.51a.47.47 0 0 1 -.46-.44.47.47 0 0 1 .44-.49l10.44-.58a.44.44 0 0 1 .49.43.47.47 0 0 1 -.44.49l-10.44.58z"/><path d="m256.43 111.48a.46.46 0 0 1 -.26-.84 13 13 0 0 0 2.87-2.46c1.78-2.24 2-5.24 2-8.65l.21-9.39a7.89 7.89 0 0 0 -.53-3.79 7.91 7.91 0 0 0 -3.08-2.74.46.46 0 0 1 .48-.79 8.79 8.79 0 0 1 3.42 3.1 8.71 8.71 0 0 1 .63 4.24l-.2 9.39c-.06 2.76-.14 6.54-2.26 9.21a13.69 13.69 0 0 1 -3.07 2.64.42.42 0 0 1 -.21.08z"/><path d="m279.28 114a.44.44 0 0 1 -.27-.09.46.46 0 0 1 -.1-.65 13.49 13.49 0 0 0 2.39-4.17 13.46 13.46 0 0 0 .32-3.59v-14.56a14.26 14.26 0 0 0 -.46-4.52 4.56 4.56 0 0 0 -2.74-3.06.47.47 0 0 1 -.3-.58.46.46 0 0 1 .58-.3 5.5 5.5 0 0 1 3.34 3.66 15.6 15.6 0 0 1 .51 4.8v14.56a13.9 13.9 0 0 1 -.36 3.84 14.19 14.19 0 0 1 -2.53 4.47.44.44 0 0 1 -.38.19z"/><path d="m282.56 120a.46.46 0 0 1 -.07-.92 76.9 76.9 0 0 1 13.3-1.06.47.47 0 0 1 0 .93 74.18 74.18 0 0 0 -13.14 1z"/><path d="m319.07 119.29a109.26 109.26 0 0 0 -14.47-.52.46.46 0 0 1 -.46-.45.45.45 0 0 1 .44-.47 109.32 109.32 0 0 1 14.59.53.46.46 0 0 1 -.05.91z"/><path d="m343.14 121.62h-.09a128.06 128.06 0 0 0 -14.86-2 .45.45 0 0 1 -.42-.49.47.47 0 0 1 .49-.43 129.78 129.78 0 0 1 15 2 .46.46 0 0 1 -.08.91z"/><path d="m303.62 112.35a.46.46 0 0 1 -.23-.06.46.46 0 0 1 -.18-.62l1.31-2.32a6.49 6.49 0 0 0 1.12-4.24c0-4.43-.11-8.92-.36-13.34a8.27 8.27 0 0 0 -.73-3.57 4.27 4.27 0 0 0 -2.89-2.09 4.42 4.42 0 0 0 -3.52.83.45.45 0 0 1 -.65-.08.46.46 0 0 1 .08-.64 5.33 5.33 0 0 1 4.26-1 5.23 5.23 0 0 1 3.53 2.56 9.17 9.17 0 0 1 .84 3.95c.25 4.45.37 9 .37 13.4a9.9 9.9 0 0 1 -.24 2.49 9.78 9.78 0 0 1 -1 2.2l-1.3 2.32a.46.46 0 0 1 -.41.21z"/><path d="m327 113.17a.42.42 0 0 1 -.28-.1.46.46 0 0 1 -.09-.64 21.07 21.07 0 0 0 2.15-3.26 8.57 8.57 0 0 0 .2-2.24c0-4.82-.14-10.8-.37-14.89a8.54 8.54 0 0 0 -.73-3.56 4.28 4.28 0 0 0 -2.9-2.1 4.36 4.36 0 0 0 -3.51.84.46.46 0 0 1 -.65-.08.47.47 0 0 1 .08-.65 5.35 5.35 0 0 1 4.26-1 5.18 5.18 0 0 1 3.55 2.51 9.22 9.22 0 0 1 .85 4c.23 4.11.38 10.11.37 14.94a9.33 9.33 0 0 1 -.23 2.48 21.11 21.11 0 0 1 -2.3 3.57.47.47 0 0 1 -.4.18z"/><path d="m353.92 89.13a8.32 8.32 0 0 1 -3.63-.92 4 4 0 0 1 -2.43-4.76 3.41 3.41 0 0 1 3.61-2.64 3.33 3.33 0 0 1 2.75 3.11.46.46 0 0 1 -.42.49.45.45 0 0 1 -.5-.42 2.44 2.44 0 0 0 -1.95-2.26 2.49 2.49 0 0 0 -2.6 2 3.1 3.1 0 0 0 1.94 3.68c1.53.77 5.31 2.11 7.76-2a4.68 4.68 0 0 0 .13-4.47c-1.56-3.09-6.78-5.74-13.31-6.75-61.21-9.5-107.53 2-135.2 8.89-14.31 3.56-23.77 5.91-27.8 3.39a4.58 4.58 0 0 1 -2.08-3.08c-1.34-5.56 3.33-7.44 4.79-7.89a4 4 0 0 1 5.09 1.77 3.2 3.2 0 0 1 -4.93 4 .46.46 0 0 1 0-.65.47.47 0 0 1 .65 0 2.49 2.49 0 0 0 3 .28 2.45 2.45 0 0 0 .51-3.18 3.13 3.13 0 0 0 -4-1.33c-1.64.5-5.31 2.15-4.18 6.8a3.68 3.68 0 0 0 1.67 2.51c3.7 2.31 13 0 27.09-3.5 27.74-6.9 74.17-18.44 135.56-8.91 5.42.84 11.94 3.18 14 7.25a5.56 5.56 0 0 1 -.15 5.33 6 6 0 0 1 -5.37 3.26z"/></g></svg>