<?xml version="1.0" encoding="utf-8"?>
<!-- Generator: Adobe Illustrator 21.0.0, SVG Export Plug-In . SVG Version: 6.00 Build 0)  -->
<svg version="1.1"
	 id="logo_1_" inkscape:version="0.91 r13725" sodipodi:docname="michael kors.svg" xmlns:cc="http://creativecommons.org/ns#" xmlns:dc="http://purl.org/dc/elements/1.1/" xmlns:inkscape="http://www.inkscape.org/namespaces/inkscape" xmlns:rdf="http://www.w3.org/1999/02/22-rdf-syntax-ns#" xmlns:sodipodi="http://sodipodi.sourceforge.net/DTD/sodipodi-0.dtd" xmlns:svg="http://www.w3.org/2000/svg"
	 xmlns="http://www.w3.org/2000/svg" xmlns:xlink="http://www.w3.org/1999/xlink" x="0px" y="0px" viewBox="0 0 400 300"
	 enable-background="new 0 0 400 300" xml:space="preserve">
<path id="logo" fill="#231F20" d="M60.289,233.334h4.779v35.291h-4.779V233.334z M156.918,238.594l5.266,15.577h-10.901
	l5.529-15.577H156.918L156.918,238.594z M154.501,233.334l-13.373,35.291h4.94l3.65-10.205h14.181l3.545,10.205h5.106l-12.68-35.291
	H154.501L154.501,233.334z M113.571,233.334v14.608h18.423v-14.608h4.672v35.291h-4.672v-16.494h-18.423v16.494h-4.833v-35.291
	H113.571z M79.894,240.154c-2.199,2.47-3.276,5.961-3.276,10.473c0,9.828,3.814,14.772,11.602,14.772
	c5.477,0,8.861-3.221,10.151-9.772h4.62c-0.861,5.637-3.385,9.668-7.522,11.974c-2.311,1.346-4.996,1.989-7.947,1.989
	c-4.408,0-8.06-1.452-10.905-4.295c-3.331-3.333-4.941-8.17-4.941-14.507c0-5.476,1.448-9.938,4.403-13.265
	c2.956-3.495,6.985-5.158,11.98-5.158c4.293,0,7.787,1.236,10.472,3.652c2.308,2.039,3.652,4.676,4.135,7.895h-4.67
	c-0.967-4.941-4.299-7.357-9.936-7.357C84.729,236.555,82.04,237.735,79.894,240.154 M47.663,238.97l-9.936,29.655H33l-9.828-29.655
	h-0.215l0.215,29.655H18.5v-35.291h6.82l9.988,29.81h0.217l9.991-29.81h6.821v35.291h-4.674l0.11-29.655
	C47.773,238.97,47.663,238.97,47.663,238.97z M367.372,236.555c-5.476,0-8.163,2.039-8.163,6.176c0,2.311,1.448,3.764,4.243,4.406
	l10.101,2.308c5.262,1.343,7.947,4.462,7.947,9.399c0,3.868-1.502,6.61-4.618,8.488c-2.419,1.556-5.48,2.258-9.134,2.258
	c-4.564,0-8.166-1.181-10.686-3.385c-2.42-2.147-3.545-5.106-3.545-8.968h4.457c0,2.952,1.076,5.102,3.115,6.55
	c1.718,1.133,3.869,1.666,6.551,1.666c6.18,0,9.242-1.933,9.242-5.961c0-1.827-0.54-3.168-1.558-3.977
	c-0.969-0.806-2.956-1.609-5.91-2.199l-7.251-1.721c-4.995-1.181-7.522-3.923-7.522-8.327c0-2.952,1.021-5.478,2.902-7.414
	c2.201-2.362,5.263-3.489,9.295-3.489c8.701,0,13.265,3.762,13.804,11.28h-4.514c-0.054-2.417-1.129-4.3-3.008-5.589
	C371.562,237.094,369.63,236.555,367.372,236.555 M324.669,237.362h11.818c4.295,0,6.447,1.983,6.447,5.906
	c0,4.133-2.419,6.176-7.143,6.176h-11.122V237.362L324.669,237.362z M319.943,233.334v35.291h4.726v-15.146h11.553
	c4.187,0,6.333,2.035,6.333,6.28c0,4.298,0.268,7.25,0.754,8.866h5.909v-0.808c-1.181-0.646-1.723-1.827-1.723-3.49l-0.372-6.395
	c-0.059-2.202-0.538-3.922-1.398-4.888c-0.483-0.647-1.448-1.29-2.791-1.827c3.22-1.877,4.832-4.723,4.832-8.38
	c0-6.391-3.866-9.503-11.544-9.503L319.943,233.334L319.943,233.334z M296.473,236.555c3.76,0,6.71,1.452,8.969,4.189
	c2.199,2.631,3.274,6.018,3.274,10.203c0,4.249-1.075,7.74-3.274,10.318c-2.26,2.793-5.21,4.135-8.969,4.135
	c-3.87,0-6.824-1.342-8.974-4.135c-2.2-2.578-3.275-6.069-3.275-10.318c0-4.185,1.075-7.572,3.275-10.203
	C289.757,238.007,292.711,236.555,296.473,236.555 M282.935,238.808c-2.418,3.385-3.656,7.412-3.656,12.139
	c0,4.785,1.238,8.813,3.656,12.198c3.058,4.296,7.518,6.446,13.539,6.446c6.014,0,10.469-2.15,13.427-6.446
	c2.525-3.385,3.756-7.414,3.756-12.198c0-4.726-1.231-8.753-3.756-12.139c-2.958-4.293-7.414-6.443-13.427-6.443
	C290.453,232.365,285.993,234.515,282.935,238.808 M255.541,233.334v17.079l17.024-17.079h6.608l-14.663,14.337l15.042,20.954
	h-6.076l-12.455-17.731l-5.48,5.377v12.354h-4.835v-35.291H255.541z M214.448,233.334v31.044h17.941v4.247H209.83v-35.291H214.448z
	 M203.17,237.523h-20.951v10.849h19.287v4.189h-19.287v11.818h21.218v4.247h-25.943v-35.291h25.676V237.523L203.17,237.523z
	 M200,191.26c-26.261,0-49.267-14.16-61.815-35.236h14.26l0.303-36.558l15.844,36.558h15.534l15.872-36.558v36.558h17.028
	l0.61-24.981l5.483-4.569l24.068,29.55h14.624C249.263,177.099,226.259,191.26,200,191.26 M136.601,85.496v67.737
	c-5.415-10.103-8.497-21.63-8.497-33.87C128.104,107.125,131.186,95.592,136.601,85.496 M200,47.471
	c26.343,0,49.408,14.25,61.928,35.438h-17.482l-26.506,24.677V82.908h-22.541L176.817,128.3l-17.669-45.392h-21.082
	C150.59,61.721,173.657,47.471,200,47.471 M271.892,119.363c0,11.418-2.687,22.216-7.442,31.816L236.522,115.2l27.653-28.184
	C269.098,96.749,271.892,107.732,271.892,119.363 M200,30.41c-49.13,0-88.958,39.83-88.958,88.953
	c0,49.128,39.827,88.958,88.958,88.958c49.124,0,88.953-39.83,88.953-88.958C288.953,70.24,249.124,30.41,200,30.41"/>
</svg>
